<svg width="56" height="56" viewBox="0 0 56 56" fill="none" xmlns="http://www.w3.org/2000/svg">
<circle cx="28" cy="28" r="26.5" stroke="#7D7D7D" stroke-width="3"/>
<path d="M28.2578 9.33331C26.9234 9.33331 25.8416 10.415 25.8416 11.7495V25.842H11.7492C10.4148 25.842 9.33301 26.9237 9.33301 28.2582C9.33301 29.5926 10.4147 30.6744 11.7492 30.6744H25.8416V44.7669C25.8416 46.1013 26.9233 47.1831 28.2578 47.1831C29.5921 47.1831 30.674 46.1014 30.674 44.7669V30.6741H44.7665C46.1008 30.6741 47.1827 29.5924 47.1827 28.2579C47.1827 26.9236 46.101 25.8417 44.7665 25.8417H30.674V11.7494C30.674 10.415 29.5921 9.33331 28.2578 9.33331Z" fill="#7D7D7D"/>
</svg>
