<svg width="51" height="63" viewBox="0 0 51 63" fill="none" xmlns="http://www.w3.org/2000/svg">
<path d="M34.1958 54.4342C34.1958 57.5275 32.5466 59.895 29.8683 61.4425C27.1908 62.9892 23.8916 62.9892 21.2191 61.4425C18.5399 59.895 16.8916 57.5275 16.8916 54.4342" fill="#24292C"/>
<path d="M25.5413 0.42334C27.9013 0.42334 29.8021 1.87834 29.8021 4.11584C29.8021 5.52417 29.8513 6.57501 30.7363 6.84417C38.2621 9.11667 43.0879 14.4433 43.0879 21.3608V32.9875C43.0879 38.3142 45.2671 39.3925 48.0096 41.43C51.9813 44.3758 51.0746 50.51 46.5171 50.5058H4.5671C0.00960455 50.51 -0.897061 44.3758 3.07461 41.43C5.81377 39.3925 7.99627 38.3142 7.99627 32.9875V21.3608C7.99627 14.4433 12.8221 9.11667 20.3479 6.84417C21.2304 6.57501 21.2821 5.52417 21.2821 4.11584C21.2829 1.87834 23.1846 0.42334 25.5413 0.42334V0.42334Z" fill="#24292C"/>
</svg>
