<svg width="50" height="50" viewBox="0 0 50 50" fill="none" xmlns="http://www.w3.org/2000/svg">
<circle cx="25" cy="25" r="25" fill="#6172FF"/>
<path fill-rule="evenodd" clip-rule="evenodd" d="M20.2121 33.6751C19.6259 33.0888 19.6259 32.1297 20.2121 31.5433L35.4296 16.3258C36.016 15.7395 36.9751 15.7395 37.5614 16.3258C38.1478 16.9121 38.1456 17.8735 37.5614 18.4576L22.3439 33.6751C21.7598 34.2592 20.7984 34.2614 20.2121 33.6751Z" fill="white"/>
<path fill-rule="evenodd" clip-rule="evenodd" d="M22.3332 33.6531C21.747 34.2393 20.7877 34.2393 20.2014 33.6531L12.4397 25.8914C11.8534 25.305 11.8534 24.3458 12.4397 23.7596C13.026 23.1733 13.9885 23.1765 14.5714 23.7596L22.3332 31.5213C22.9163 32.1043 22.9195 33.0668 22.3332 33.6531Z" fill="white"/>
</svg>
