<svg width="61" height="75" viewBox="0 0 61 75" fill="none" xmlns="http://www.w3.org/2000/svg">
<path d="M40.8512 27.1729C39.881 27.1729 39.0947 27.9591 39.0947 28.9293V62.1259C39.0947 63.0954 39.881 63.8823 40.8512 63.8823C41.8213 63.8823 42.6076 63.0954 42.6076 62.1259V28.9293C42.6076 27.9591 41.8213 27.1729 40.8512 27.1729Z" fill="#6172FF"/>
<path d="M20.1256 27.1729C19.1554 27.1729 18.3691 27.9591 18.3691 28.9293V62.1259C18.3691 63.0954 19.1554 63.8823 20.1256 63.8823C21.0957 63.8823 21.882 63.0954 21.882 62.1259V28.9293C21.882 27.9591 21.0957 27.1729 20.1256 27.1729Z" fill="#6172FF"/>
<path d="M5.01981 22.3282V65.6031C5.01981 68.1609 5.95772 70.5629 7.59615 72.2864C9.22702 74.0147 11.4967 74.9959 13.872 75H47.1043C49.4803 74.9959 51.7499 74.0147 53.3801 72.2864C55.0185 70.5629 55.9564 68.1609 55.9564 65.6031V22.3282C59.2134 21.4637 61.3239 18.3172 60.8882 14.9752C60.4518 11.6339 57.6052 9.13438 54.235 9.13369H45.2422V6.93815C45.2525 5.09183 44.5224 3.31893 43.2154 2.01464C41.9084 0.711038 40.1327 -0.0148636 38.2864 0.000230781H22.6898C20.8435 -0.0148636 19.0679 0.711038 17.7608 2.01464C16.4538 3.31893 15.7238 5.09183 15.7341 6.93815V9.13369H6.74126C3.3711 9.13438 0.524436 11.6339 0.0880716 14.9752C-0.347607 18.3172 1.76286 21.4637 5.01981 22.3282ZM47.1043 71.4871H13.872C10.8689 71.4871 8.53268 68.9074 8.53268 65.6031V22.4826H52.4436V65.6031C52.4436 68.9074 50.1074 71.4871 47.1043 71.4871ZM19.2469 6.93815C19.2353 6.02357 19.5948 5.14329 20.2439 4.49766C20.8922 3.85204 21.7746 3.49732 22.6898 3.5131H38.2864C39.2017 3.49732 40.084 3.85204 40.7324 4.49766C41.3815 5.14261 41.741 6.02357 41.7293 6.93815V9.13369H19.2469V6.93815ZM6.74126 12.6466H54.235C55.9811 12.6466 57.3966 14.062 57.3966 15.8081C57.3966 17.5543 55.9811 18.9697 54.235 18.9697H6.74126C4.99511 18.9697 3.57967 17.5543 3.57967 15.8081C3.57967 14.062 4.99511 12.6466 6.74126 12.6466Z" fill="#6172FF"/>
<path d="M30.4879 27.1729C29.5177 27.1729 28.7314 27.9591 28.7314 28.9293V62.1259C28.7314 63.0954 29.5177 63.8823 30.4879 63.8823C31.458 63.8823 32.2443 63.0954 32.2443 62.1259V28.9293C32.2443 27.9591 31.458 27.1729 30.4879 27.1729Z" fill="#6172FF"/>
</svg>
