<svg width="35" height="18" viewBox="0 0 35 18" fill="none" xmlns="http://www.w3.org/2000/svg">
<path d="M23.8324 2.22548L9.39648 16.7268C8.84326 17.2829 7.94753 17.2821 7.39502 16.7253L0.207057 9.48809C-0.0690189 9.20987 -0.0690189 8.75772 0.207057 8.47951L1.20886 7.47163C1.48493 7.19341 1.93351 7.19341 2.20994 7.47163L7.9136 13.2146C8.18968 13.4928 8.63826 13.4928 8.91469 13.2146L21.8313 0.208664C22.1074 -0.0695546 22.556 -0.0695546 22.8324 0.208664L23.8335 1.21654C24.1103 1.49583 24.1096 1.94726 23.8324 2.22548ZM34.7958 1.21689L33.8094 0.209021C33.5372 -0.0691977 33.0951 -0.0691977 32.8229 0.209021L20.0956 13.2146C19.8227 13.4928 19.3813 13.4928 19.1084 13.2146L18.088 12.1717C17.8159 11.8935 17.3745 11.8928 17.1016 12.171L16.1137 13.1774C15.8409 13.4557 15.8402 13.9078 16.113 14.1867L18.5977 16.725C19.1416 17.2818 20.0249 17.2825 20.5695 16.7264L34.7944 2.22512C35.0683 1.94726 35.0683 1.49511 34.7958 1.21689Z" fill="white"/>
</svg>
