<svg width="52" height="51" viewBox="0 0 52 51" fill="none" xmlns="http://www.w3.org/2000/svg">
<path d="M34.4167 6.10163C26.7257 -1.58938 14.208 -1.58938 6.517 6.10163C-1.17233 13.7943 -1.17233 26.3103 6.517 34.003C13.366 40.8504 24.0331 41.5839 31.7191 36.2371C31.8808 37.0024 32.2509 37.7326 32.8461 38.3278L44.0467 49.5284C45.6789 51.1573 48.3165 51.1573 49.9404 49.5284C51.571 47.8978 51.571 45.2602 49.9404 43.6347L38.7399 32.4308C38.148 31.8406 37.4161 31.4688 36.6508 31.307C42.001 23.6194 41.2674 12.954 34.4167 6.10163ZM30.8805 30.4668C25.1385 36.2087 15.7936 36.2087 10.0532 30.4668C4.31457 24.7248 4.31457 15.3815 10.0532 9.63952C15.7936 3.8992 25.1385 3.8992 30.8805 9.63952C36.6225 15.3815 36.6225 24.7248 30.8805 30.4668Z" fill="#6F6F6F"/>
</svg>
