<svg width="94" height="94" viewBox="0 0 94 94" fill="none" xmlns="http://www.w3.org/2000/svg">
<circle cx="47" cy="47" r="47" fill="#7D7D7D"/>
<path d="M71.6527 22.5223C71.4053 22.2746 71.0903 22.1053 70.7472 22.0357C70.4041 21.966 70.0481 21.9989 69.7236 22.1304L23.1208 41.0241C22.8087 41.1487 22.5383 41.359 22.3406 41.6308C22.143 41.9025 22.0263 42.2246 22.0039 42.5599C21.9816 42.8952 22.0545 43.2299 22.2143 43.5255C22.3741 43.8211 22.6143 44.0655 22.907 44.2304L38.509 53.1402L50.2421 41.416C50.5803 41.1047 51.0257 40.9362 51.4853 40.9458C51.9448 40.9553 52.3829 41.1421 52.7079 41.4671C53.0329 41.7921 53.2197 42.2302 53.2293 42.6897C53.2388 43.1493 53.0703 43.5947 52.759 43.9329L41.033 55.666L49.9535 71.2733C50.1103 71.5449 50.336 71.7702 50.6078 71.9266C50.8796 72.083 51.1879 72.1649 51.5014 72.1639H51.6208C51.9541 72.1413 52.2743 72.0254 52.5448 71.8295C52.8154 71.6336 53.0254 71.3656 53.1509 71.056L72.0446 24.4496C72.1757 24.1253 72.2085 23.7697 72.1388 23.4269C72.0691 23.0842 71.9001 22.7696 71.6527 22.5223V22.5223Z" fill="white"/>
</svg>
