<svg width="55" height="33" viewBox="0 0 55 33" fill="none" xmlns="http://www.w3.org/2000/svg">
<path d="M31.1105 0H6.01751C2.70788 0 0 2.70788 0 6.01751V26.2965C0 29.6061 2.70788 32.314 6.01751 32.314H31.1105C34.4201 32.314 37.128 29.6061 37.128 26.2965V6.01751C37.128 2.6477 34.4201 0 31.1105 0Z" fill="#313134"/>
<path d="M50.548 3.30957C50.1869 3.36975 49.8259 3.55027 49.525 3.7308L40.1377 9.14655V23.1072L49.5852 28.5229C51.3303 29.5459 53.4966 28.9442 54.5195 27.1991C54.8204 26.6575 55.0009 26.0557 55.0009 25.3938V6.79972C55.0009 4.57325 52.8948 2.768 50.548 3.30957Z" fill="#313134"/>
</svg>
