<svg width="80" height="72" viewBox="0 0 80 72" fill="none" xmlns="http://www.w3.org/2000/svg">
<path d="M80 18.6667C80 8.37333 71.6267 0 61.3333 0C58.124 0 55.0173 0.817333 52.2493 2.364L77.636 27.7507C79.1827 24.9827 80 21.876 80 18.6667ZM77.724 35.0573C78.6747 34.1067 78.6747 32.56 77.724 31.6093L48.3907 2.276C47.916 1.80133 47.2907 1.56267 46.6667 1.56267C46.0427 1.56267 45.4173 1.8 44.9427 2.276C43.992 3.22667 43.992 4.77333 44.9427 5.724L74.276 35.0573C75.2267 36.008 76.7733 36.008 77.724 35.0573ZM70.4173 34.9693L45.0293 9.58133C43.484 12.3507 42.6667 15.4573 42.6667 18.6667C42.6667 28.96 51.04 37.3333 61.3333 37.3333C64.5427 37.3333 67.6493 36.516 70.4173 34.9693ZM25.3307 63.704L54.9587 39.0253C48.5027 37 43.3773 31.9733 41.1773 25.5947L17.636 55.6533C17.2013 56.208 17.2427 57.0373 17.7307 57.54L23.6147 63.608C24.0827 64.088 24.8187 64.1307 25.3307 63.704ZM15.076 64.6493L16.6587 66.26C17.1733 66.784 18.0627 66.784 18.5773 66.26L20.5373 64.264L17.0267 60.6427L15.076 62.628C14.528 63.1867 14.528 64.092 15.076 64.6493Z" fill="#6172FF"/>
<path d="M1.56852 59.2427L13.5698 41.908L15.7632 43.4267L3.73119 60.8027C3.03519 61.7307 2.66718 62.836 2.66718 64C2.66718 66.9413 5.05919 69.3333 8.00052 69.3333C10.1232 69.3333 12.0312 68.048 12.8739 66.1427C12.9712 66.2693 13.0605 66.4013 13.1752 66.5173L14.7579 68.128C14.7712 68.1413 14.7872 68.1507 14.8019 68.164C13.3685 70.4867 10.8139 72 8.00052 72C3.58852 72 0.000518799 68.412 0.000518799 64C0.000518799 62.2533 0.55385 60.5947 1.56852 59.2427Z" fill="#6172FF"/>
</svg>
