<svg width="80" height="85" viewBox="0 0 80 85" fill="none" xmlns="http://www.w3.org/2000/svg">
<path d="M64.1249 30.2841C63.1616 29.3208 61.5996 29.3208 60.6361 30.2841C59.6727 31.2475 59.6727 32.8094 60.6361 33.7728L68.1952 41.3318C68.6769 41.8135 69.3082 42.0543 69.9394 42.0543C70.5706 42.0543 71.2022 41.8133 71.6837 41.3318C72.6471 40.3684 72.6471 38.8065 71.6837 37.8431L64.1249 30.2841Z" fill="#6172FF"/>
<path d="M62.3806 15.1723C63.012 15.1723 63.6433 14.9314 64.1249 14.4498L71.6839 6.8908C72.6473 5.92738 72.6473 4.36549 71.6839 3.40207C70.7206 2.43881 69.1586 2.43881 68.1952 3.40207L60.6361 10.9611C59.6727 11.9245 59.6727 13.4864 60.6361 14.4498C61.118 14.9314 61.7494 15.1723 62.3806 15.1723Z" fill="#6172FF"/>
<path d="M77.533 19.6935H66.0206C64.6582 19.6935 63.5537 20.798 63.5537 22.1604C63.5537 23.5228 64.6582 24.6274 66.0206 24.6274H77.533C78.8954 24.6274 79.9999 23.5228 79.9999 22.1604C79.9999 20.798 78.8954 19.6935 77.533 19.6935Z" fill="#6172FF"/>
<path d="M27.1364 59.7391C28.4988 59.7391 29.6033 58.6346 29.6033 57.2721C29.6033 55.9097 28.4988 54.8052 27.1364 54.8052C25.7739 54.8052 24.6694 55.9097 24.6694 57.2721C24.6694 58.6346 25.7739 59.7391 27.1364 59.7391Z" fill="#6172FF"/>
<path d="M51.8056 0H2.46693C1.10453 0 0 1.10453 0 2.46693V81.7377C0 83.1001 1.10453 84.2046 2.46693 84.2046H51.8056C53.168 84.2046 54.2725 83.1001 54.2725 81.7377V2.46693C54.2725 1.10453 53.168 0 51.8056 0ZM27.1363 9.66396C33.2339 9.66396 38.1945 14.6246 38.1945 20.7222C38.1945 26.8198 33.2339 31.7805 27.1363 31.7805C21.0387 31.7805 16.078 26.8198 16.078 20.7222C16.078 14.6246 21.0387 9.66396 27.1363 9.66396ZM27.1363 74.5407C17.6144 74.5407 9.86773 66.794 9.86773 57.2721C9.86773 47.7503 17.6144 40.0036 27.1363 40.0036C36.6581 40.0036 44.4048 47.7503 44.4048 57.2721C44.4048 66.794 36.6581 74.5407 27.1363 74.5407Z" fill="#6172FF"/>
<path d="M27.1364 44.9375C20.3351 44.9375 14.8018 50.4708 14.8018 57.2721C14.8018 64.0735 20.3351 69.6068 27.1364 69.6068C33.9378 69.6068 39.4711 64.0735 39.4711 57.2721C39.4711 50.4708 33.9378 44.9375 27.1364 44.9375ZM27.1364 64.6729C23.0556 64.6729 19.7356 61.3529 19.7356 57.2721C19.7356 53.1913 23.0556 49.8713 27.1364 49.8713C31.2172 49.8713 34.5372 53.1913 34.5372 57.2721C34.5372 61.3529 31.2172 64.6729 27.1364 64.6729Z" fill="#6172FF"/>
<path d="M27.1361 26.8465C30.5132 26.8465 33.2605 24.0991 33.2605 20.7221C33.2605 17.345 30.5132 14.5977 27.1361 14.5977C23.7591 14.5977 21.0117 17.345 21.0117 20.7221C21.0117 24.0991 23.7591 26.8465 27.1361 26.8465ZM27.1361 18.2551C28.4985 18.2551 29.6031 19.3597 29.6031 20.7221C29.6031 22.0845 28.4985 23.189 27.1361 23.189C25.7737 23.189 24.6692 22.0845 24.6692 20.7221C24.6692 19.3597 25.7737 18.2551 27.1361 18.2551Z" fill="#6172FF"/>
</svg>
