<svg width="71" height="80" viewBox="0 0 71 80" fill="none" xmlns="http://www.w3.org/2000/svg">
<path d="M68.2722 33.2153L37.0709 2.0095C35.2307 0.173876 32.254 0.195595 30.4379 2.00716C28.6115 3.83825 28.6115 6.81138 30.4379 8.64013L61.6437 39.8438C63.4719 41.6719 66.4439 41.6719 68.2722 39.8438C70.1053 38.0106 70.1053 35.0481 68.2722 33.2153Z" fill="#6172FF"/>
<path d="M28.1215 12.9539L27.8866 14.1311C26.2324 22.4058 22.2121 30.2669 16.7744 36.6383L33.7505 53.6144C40.1212 48.1779 47.874 44.0496 56.149 42.3933L57.3284 42.1585L28.1215 12.9539Z" fill="#6172FF"/>
<path d="M13.6624 40.1546L2.06034 51.7543C-0.681073 54.4957 -0.692479 58.9464 2.06034 61.6992L8.68878 68.3276C11.4302 71.069 15.8808 71.0803 18.6336 68.3276L30.2346 56.7267L13.6624 40.1546ZM15.3196 58.3851C14.4041 59.3006 12.9208 59.3006 12.0053 58.3851C11.0899 57.4696 11.0899 55.9864 12.0053 55.0709L15.3196 51.7567C16.235 50.8412 17.7183 50.8412 18.6338 51.7567C19.5493 52.6721 19.5493 54.1554 18.6338 55.0709L15.3196 58.3851Z" fill="#6172FF"/>
<path d="M40.0203 69.5749L43.2085 66.3866C45.9615 63.6341 45.9524 59.1835 43.2087 56.4442L40.8406 54.0744C39.5317 54.9536 38.2817 55.9089 37.0663 56.9283L39.8945 59.7607C40.8078 60.6693 40.8142 62.148 39.8945 63.0725L36.6535 66.3135L31.8907 61.6989L25.262 68.3277L35.8959 78.6319C37.7106 80.4513 40.6901 80.4616 42.522 78.6296C44.3507 76.8008 44.3507 73.8277 42.522 71.9988L40.0203 69.5749Z" fill="#6172FF"/>
<path d="M49.4883 0C48.1928 0 47.1445 1.04828 47.1445 2.34375V7.03126C47.1445 8.32673 48.1928 9.37501 49.4883 9.37501C50.7838 9.37501 51.832 8.32673 51.832 7.03126V2.34375C51.832 1.04828 50.7838 0 49.4883 0Z" fill="#6172FF"/>
<path d="M68.2368 18.7501H63.5493C62.2538 18.7501 61.2056 19.7983 61.2056 21.0938C61.2056 22.3893 62.2538 23.4376 63.5493 23.4376H68.2368C69.5323 23.4376 70.5806 22.3893 70.5806 21.0938C70.5806 19.7983 69.5323 18.7501 68.2368 18.7501Z" fill="#6172FF"/>
<path d="M65.2076 5.3741C64.2921 4.45863 62.8089 4.45863 61.8934 5.3741L57.2059 10.0616C56.2904 10.9771 56.2904 12.4604 57.2059 13.3758C58.1214 14.2913 59.6046 14.2915 60.5201 13.3758L65.2076 8.68832C66.1231 7.77285 66.1231 6.28957 65.2076 5.3741Z" fill="#6172FF"/>
</svg>
