<svg width="80" height="80" viewBox="0 0 80 80" fill="none" xmlns="http://www.w3.org/2000/svg">
<path d="M42.3437 2.34375C42.3437 1.04937 41.2944 0 40 0C38.7056 0 37.6562 1.04937 37.6562 2.34375V8.59374C37.6562 9.88811 38.7056 10.9375 40 10.9375C41.2944 10.9375 42.3437 9.88811 42.3437 8.59374V2.34375Z" fill="#6172FF"/>
<path d="M48.2034 10.6234C49.3244 11.2706 50.7578 10.8866 51.405 9.76563L54.53 4.35298C55.1772 3.23204 54.7931 1.79861 53.6722 1.15142C52.5513 0.504236 51.1178 0.888298 50.4706 2.00923L47.3456 7.42188C46.6985 8.54282 47.0825 9.97625 48.2034 10.6234Z" fill="#6172FF"/>
<path d="M28.5956 9.76563C29.2428 10.8866 30.6763 11.2706 31.7972 10.6234C32.9181 9.97625 33.3022 8.54282 32.655 7.42188L29.53 2.00923C28.8828 0.888298 27.4494 0.504236 26.3284 1.15142C25.2075 1.79861 24.8234 3.23204 25.4706 4.35298L28.5956 9.76563Z" fill="#6172FF"/>
<path d="M36.0198 17.8706L14.7055 12.9498C13.6017 12.695 12.4738 13.2661 12.0256 14.3062L7.3855 25.0781C8.93253 26.317 10.736 27.1942 12.698 27.6471C12.7074 27.6493 12.7167 27.6517 12.7264 27.6537C12.7327 27.6551 12.7388 27.6565 12.745 27.6581C15.4595 28.3078 18.2659 28.0956 20.8541 27.0434C20.8627 27.04 20.8714 27.0364 20.88 27.0331C24.3192 25.6368 28.0492 25.3371 31.668 26.1664C31.6789 26.1689 31.6903 26.1715 31.7012 26.174C33.7645 26.6504 35.6987 27.4734 37.4412 28.6039L37.8339 20.2645C37.887 19.1331 37.1234 18.1254 36.0198 17.8706Z" fill="#6172FF"/>
<path d="M30.6211 30.7356C27.9394 30.121 25.1759 30.3446 22.6289 31.382C22.6195 31.3857 22.61 31.3896 22.6005 31.3934C19.1516 32.7913 15.4198 33.087 11.797 32.2506C11.753 32.2404 11.7089 32.2301 11.665 32.2195C11.6578 32.2179 11.65 32.216 11.643 32.2143C9.41064 31.699 7.33033 30.7778 5.48002 29.5009L5.00268 30.6089C3.0394 35.1665 3.19877 40.3199 5.43986 44.7476C7.32408 48.4701 10.4933 51.3101 14.3284 52.7838L10.575 69.041L1.79393 71.1597C0.737371 71.4147 -0.00528417 72.3627 2.83187e-05 73.4496C0.00534081 74.5364 0.757371 75.4772 1.81643 75.7217L20.0858 79.9396C21.1448 80.1841 22.2331 79.6683 22.7144 78.6936C23.1958 77.7191 22.9437 76.5414 22.1058 75.8489L15.1422 70.0953L18.8955 53.8382C22.9886 54.1949 27.0819 53.0316 30.4073 50.5118C34.3626 47.5146 36.765 42.9527 36.9982 37.9957L37.1673 34.406C35.3857 32.5807 33.1434 31.3178 30.6454 30.741C30.6375 30.7393 30.6292 30.7374 30.6211 30.7356Z" fill="#6172FF"/>
<path d="M78.2057 71.1597L69.4246 69.041L65.6713 52.7838C69.5065 51.3101 72.6757 48.4702 74.5599 44.7476C76.801 40.3199 76.9603 35.1665 74.9971 30.6089L74.5197 29.5009C72.6694 30.7776 70.5891 31.699 68.3568 32.2143C68.3496 32.216 68.3418 32.2178 68.3347 32.2195C68.2908 32.2299 68.2468 32.2404 68.2027 32.2506C64.5801 33.087 60.8483 32.7913 57.3993 31.3934C57.3898 31.3896 57.3802 31.3857 57.3708 31.382C54.8238 30.3446 52.0602 30.121 49.3787 30.7356C49.3704 30.7374 49.3623 30.7393 49.3541 30.7412C46.8562 31.3179 44.6138 32.5807 42.8323 34.4062L43.0013 37.9959C43.2346 42.9529 45.637 47.5149 49.5923 50.5119C52.9177 53.0318 57.0112 54.1949 61.1041 53.8383L64.8574 70.0955L57.8938 75.8491C57.0558 76.5414 56.8038 77.7191 57.2852 78.6938C57.7665 79.6683 58.8548 80.1842 59.9138 79.9397L78.1832 75.7219C79.2422 75.4774 79.9942 74.5367 79.9996 73.4497C80.005 72.3627 79.2624 71.4147 78.2057 71.1597Z" fill="#6172FF"/>
<path d="M48.3325 26.1664C51.9512 25.3372 55.6812 25.6368 59.1204 27.0331C59.1292 27.0365 59.1377 27.04 59.1463 27.0434C61.7343 28.0956 64.5407 28.3078 67.2554 27.6581C67.2616 27.6565 67.2677 27.6551 67.274 27.6537C67.2838 27.6517 67.293 27.6493 67.3024 27.6472C69.2645 27.1942 71.0677 26.317 72.6149 25.0781L67.9748 14.3062C67.5266 13.2659 66.3987 12.695 65.2949 12.9498L43.9806 17.8706C42.877 18.1254 42.1134 19.1331 42.1667 20.2645L42.5593 28.6039C44.3018 27.4734 46.2359 26.6504 48.2993 26.174C48.3101 26.1715 48.3215 26.1689 48.3325 26.1664Z" fill="#6172FF"/>
</svg>
