<svg width="80" height="80" viewBox="0 0 80 80" fill="none" xmlns="http://www.w3.org/2000/svg">
<path d="M44.0063 47.5688C43.0689 47.5688 42.3191 46.819 42.3191 45.8348V40.0703C42.3191 39.133 43.0689 38.3831 44.0063 38.3831C44.9904 38.3831 45.7403 39.133 45.7403 40.0703V45.8348C45.7403 46.819 44.9904 47.5688 44.0063 47.5688ZM49.8176 47.5688C48.8803 47.5688 48.1305 46.819 48.1305 45.8348V38.5237C48.1305 37.5864 48.8803 36.7897 49.8176 36.7897C50.8018 36.7897 51.5517 37.5864 51.5517 38.5237V45.8348C51.5517 46.819 50.8018 47.5688 49.8176 47.5688ZM55.629 47.5688C54.6917 47.5688 53.9418 46.819 53.9418 45.8348V36.7897C53.9418 35.8524 54.6917 35.1025 55.629 35.1025C56.5663 35.1025 57.363 35.8524 57.363 36.7897V45.8348C57.363 46.819 56.6132 47.5688 55.629 47.5688ZM61.4404 47.5688C60.503 47.5688 59.7532 46.819 59.7532 45.8348V35.3837C59.7532 34.4464 60.503 33.6965 61.4404 33.6965C62.3777 33.6965 63.1744 34.4464 63.1744 35.3837V45.8348C63.1744 46.819 62.3777 47.5688 61.4404 47.5688ZM67.2517 47.5688C66.3144 47.5688 65.5177 46.819 65.5177 45.8348V33.0873C65.5177 32.15 66.3144 31.4001 67.2517 31.4001C68.189 31.4001 68.9858 32.15 68.9858 33.0873V45.8348C68.9858 46.819 68.189 47.5688 67.2517 47.5688Z" fill="#6172FF"/>
<path d="M52.63 30.6971L58.207 26.0105C58.8163 25.495 59.7536 25.4481 60.3628 25.9637L62.3781 27.604L65.4712 24.5577C66.1742 23.9016 67.2521 23.9484 67.9082 24.6046C68.5644 25.3075 68.5644 26.3855 67.8614 27.0416L63.6903 31.1189C63.0811 31.7282 62.0969 31.775 61.4408 31.2126L59.3318 29.5255L53.8016 34.2121C53.1455 34.7276 52.255 34.7276 51.5989 34.2589L49.6774 32.7124L44.569 37.0709C44.241 37.3052 43.8661 37.4458 43.4443 37.4458C42.9287 37.4458 42.4601 37.2583 42.132 36.8365C41.5228 36.1336 41.6165 35.0556 42.3195 34.4464L48.5526 29.1974C49.1619 28.6819 50.0992 28.6819 50.7085 29.1505L52.63 30.6971Z" fill="#6172FF"/>
<path d="M69.8767 23.0111C69.7361 22.8705 69.5487 22.7768 69.3143 22.7768L63.128 23.1049C62.8469 23.1517 62.6125 23.2923 62.5188 23.5266C62.4251 23.8078 62.4719 24.089 62.6594 24.2765C64.534 26.2449 66.4555 28.1664 68.3302 30.1347C68.5176 30.3222 68.7988 30.3691 69.0331 30.2753C69.2675 30.2285 69.4549 29.9941 69.5018 29.7129L70.0642 23.5266C70.0642 23.3392 70.0173 23.1517 69.8767 23.0111Z" fill="#6172FF"/>
<path d="M73.8137 62.0972H5.71763C2.57762 62.0972 0 59.5196 0 56.3796V9.42003C0 6.28002 2.57762 3.74927 5.71763 3.74927H21.6052C22.5425 3.74927 23.2923 4.49912 23.2923 5.4833C23.2923 6.42062 22.5425 7.17047 21.6052 7.17047H5.71763C4.45226 7.17047 3.46807 8.20152 3.46807 9.42003V56.3796C3.46807 57.645 4.45226 58.6292 5.71763 58.6292H73.8137C75.0791 58.6292 76.0633 57.645 76.0633 56.3796V9.42003C76.0633 8.20152 75.0791 7.17047 73.8137 7.17047H57.9262C56.9889 7.17047 56.1922 6.42062 56.1922 5.4833C56.1922 4.49912 56.9889 3.74927 57.9262 3.74927H73.8137C76.9537 3.74927 79.4845 6.28002 79.4845 9.42003V56.3796C79.4845 59.5196 76.9537 62.0972 73.8137 62.0972Z" fill="#6172FF"/>
<path d="M53.3798 10.9197H26.1039C23.1045 10.9197 20.6675 8.48272 20.6675 5.4833C20.6675 2.43702 23.1045 0 26.1039 0H53.3798C56.4261 0 58.8631 2.43702 58.8631 5.4833C58.8631 8.48272 56.4261 10.9197 53.3798 10.9197Z" fill="#6172FF"/>
<path d="M39.7419 73.3451C38.8045 73.3451 38.0547 72.5483 38.0547 71.611V60.3632C38.0547 59.4259 38.8045 58.6292 39.7419 58.6292C40.726 58.6292 41.4759 59.4259 41.4759 60.3632V71.611C41.4759 72.5483 40.726 73.3451 39.7419 73.3451Z" fill="#6172FF"/>
<path d="M39.7423 80C37.2115 80 35.1025 77.891 35.1025 75.3134C35.1025 72.7358 37.2115 70.6737 39.7423 70.6737C42.3199 70.6737 44.4288 72.7358 44.4288 75.3134C44.4288 77.891 42.3199 80 39.7423 80Z" fill="#6172FF"/>
<path d="M17.2939 35.0088C13.5446 33.9309 10.7795 30.4628 10.7795 26.3855C10.7795 21.4645 14.81 17.4341 19.7309 17.4341C23.8082 17.4341 27.2763 20.1992 28.3542 23.9484C28.1199 23.9016 27.9324 23.9016 27.745 23.9016H19.7309C18.3249 23.9016 17.247 24.9795 17.247 26.3855V34.3995C17.247 34.587 17.247 34.7744 17.2939 35.0088Z" fill="#6172FF"/>
<path d="M19.7308 35.3368C19.2152 35.3368 18.7935 34.9151 18.7935 34.3995V26.3855C18.7935 25.8699 19.2152 25.4482 19.7308 25.4482H27.7448C28.2604 25.4482 28.6822 25.8699 28.6822 26.3855C28.6822 31.3064 24.6517 35.3368 19.7308 35.3368Z" fill="#6172FF"/>
<path d="M17.6682 52.9115H13.3565C12.841 52.9115 12.4192 52.4897 12.4192 51.9742V40.2578C12.4192 39.7422 12.841 39.3204 13.3565 39.3204H17.6682C18.1837 39.3204 18.6055 39.7422 18.6055 40.2578V51.9742C18.6055 52.4897 18.1837 52.9115 17.6682 52.9115Z" fill="#6172FF"/>
<path d="M25.1674 52.9115H20.9026C20.3871 52.9115 19.9653 52.4897 19.9653 51.9742V42.1793C19.9653 41.6637 20.3871 41.2419 20.9026 41.2419H25.1674C25.683 41.2419 26.1048 41.6637 26.1048 42.1793V51.9742C26.1048 52.4897 25.683 52.9115 25.1674 52.9115Z" fill="#6172FF"/>
<path d="M32.7126 52.9115H28.4009C27.8854 52.9115 27.4636 52.4898 27.4636 51.9742V43.7727C27.4636 43.2572 27.8854 42.8354 28.4009 42.8354H32.7126C33.2281 42.8354 33.6499 43.2572 33.6499 43.7727V51.9742C33.6499 52.4898 33.2281 52.9115 32.7126 52.9115Z" fill="#6172FF"/>
</svg>
