<svg width="80" height="80" viewBox="0 0 80 80" fill="none" xmlns="http://www.w3.org/2000/svg">
<path d="M46.854 36.46L50.1688 39.7748C57.479 32.4646 69.3748 32.4646 76.6855 39.7748L79.9998 36.46C70.8622 27.3224 55.9916 27.3224 46.854 36.46Z" fill="#6172FF"/>
<path d="M56.7979 46.4038L60.1127 49.718C61.9395 47.8912 64.9143 47.8912 66.7417 49.718L70.0559 46.4038C66.3999 42.7478 60.4539 42.7478 56.7979 46.4038Z" fill="#6172FF"/>
<path d="M43.5388 0L40.2246 3.31482C47.5348 10.625 47.5348 22.5208 40.2246 29.8309L43.5388 33.1458C52.677 24.0082 52.677 9.13757 43.5388 0Z" fill="#6172FF"/>
<path d="M33.5961 23.2019C37.2521 19.5459 37.2521 13.5992 33.5961 9.94324L30.2812 13.2581C32.1086 15.0854 32.1086 18.0603 30.2812 19.8871L33.5961 23.2019Z" fill="#6172FF"/>
<path d="M67.3176 14.0997C73.2814 12.9071 77.9072 8.28186 79.0999 2.3175L74.5033 1.39832C73.6824 5.5011 70.5006 8.68286 66.3978 9.50378C60.4341 10.6964 55.8088 15.3217 54.6162 21.286L59.2122 22.2052C60.0331 18.1024 63.2148 14.92 67.3176 14.0997Z" fill="#6172FF"/>
<path d="M76.682 53.0347L73.3672 49.7198L76.682 46.405L79.9962 49.7198L76.682 53.0347Z" fill="#6172FF"/>
<path d="M30.281 6.62964L26.9668 3.31482L30.2816 0L33.5958 3.31482L30.281 6.62964Z" fill="#6172FF"/>
<path d="M53.4834 3.31482L56.7976 0.000610352L60.1118 3.31482L56.7976 6.62903L53.4834 3.31482Z" fill="#6172FF"/>
<path d="M76.683 26.5186L73.3682 23.2037L76.683 19.8895L79.9978 23.2037L76.683 26.5186Z" fill="#6172FF"/>
<path d="M6.646 61.8774L34.157 67.3407L51.696 60.7635L10.6536 51.1914L6.646 61.8774Z" fill="#6172FF"/>
<path d="M61.0291 57.2638L45.3967 41.6309L16.0718 36.7438L12.3145 46.7633L59.6143 57.7942L61.0291 57.2638Z" fill="#6172FF"/>
<path d="M17.748 32.2729L39.6951 35.9302L22.7358 18.9709L17.748 32.2729Z" fill="#6172FF"/>
<path d="M0 80L25.8282 70.4645L4.97803 66.3239L0 80Z" fill="#6172FF"/>
</svg>
