<svg width="77" height="77" viewBox="0 0 77 77" fill="none" xmlns="http://www.w3.org/2000/svg">
<path d="M72.5791 4.36842H61.2107V0.578949H15.737V4.36842H4.36858C2.09489 4.36842 0.579102 5.88421 0.579102 8.1579V17.2526C0.579102 25.9684 7.02121 33.1684 15.737 34.3053V34.6842C15.737 45.6737 23.3159 54.7684 33.5475 57.0421L30.8949 65H22.1791C20.6633 65 19.1475 66.1368 18.7686 67.6526L15.737 76.3684H61.2107L58.1791 67.6526C57.8002 66.1368 56.2844 65 54.7686 65H46.0528L43.4002 57.0421C53.6317 54.7684 61.2107 45.6737 61.2107 34.6842V34.3053C69.9265 33.1684 76.3686 25.9684 76.3686 17.2526V8.1579C76.3686 5.88421 74.8528 4.36842 72.5791 4.36842ZM8.15805 17.2526V11.9474H15.737V26.7263C11.5686 25.5895 8.15805 21.8 8.15805 17.2526ZM46.0528 38.4737L38.4738 34.3053L30.8949 38.4737L32.7896 30.8947L27.1054 23.3158H35.0633L38.4738 15.7368L41.8844 23.3158H49.8423L44.1581 30.8947L46.0528 38.4737ZM68.7896 17.2526C68.7896 21.8 65.3791 25.9684 61.2107 26.7263V11.9474H68.7896V17.2526Z" fill="#6172FF"/>
</svg>
