<svg width="81" height="80" viewBox="0 0 81 80" fill="none" xmlns="http://www.w3.org/2000/svg">
<path d="M40.0007 59.4027C37.0416 68.5378 32.4755 74.4332 26.9087 80H53.0926C47.5123 74.4195 42.972 68.5756 40.0007 59.4027Z" fill="#6172FF"/>
<path d="M56.46 50.5302C55.6152 50.0274 54.8273 49.438 54.1806 48.7044C52.4617 50.6545 49.9462 51.8859 47.1494 51.8859C45.582 51.8859 44.1236 51.4673 42.8237 50.7843C45.0419 66.4434 53.9978 74.2757 59.7218 79.9999H67.1558C59.0241 71.8679 56.742 64.6964 56.46 50.5302Z" fill="#6172FF"/>
<path d="M79.7534 76.6079C76.8488 70.7989 75.1569 64.1377 75.1569 57.6445V51.873C72.4083 51.8385 69.9368 50.6265 68.2424 48.7044C66.5235 50.6544 64.008 51.8859 61.2112 51.8859C61.2001 51.8859 61.1903 51.8824 61.1792 51.8824C61.73 69.4156 66.7919 73.0082 73.7837 80H77.5008C78.3133 80 79.2227 79.5789 79.6507 78.8876C80.0784 78.1964 80.1173 77.3335 79.7534 76.6079Z" fill="#6172FF"/>
<path d="M11.9925 48.7044C10.2596 50.6732 7.42273 51.8193 4.68831 51.8176V57.6445C4.68831 64.1379 3.15251 70.7989 0.248098 76.6079C-0.115813 77.3335 -0.0769064 78.1964 0.351068 78.8876C0.779043 79.5789 1.53218 80 2.34469 80H6.06177C13.0633 72.9985 18.278 69.4197 18.8219 51.8638C16.1082 51.8044 13.6687 50.6062 11.9925 48.7044Z" fill="#6172FF"/>
<path d="M33.0857 51.8859C30.2888 51.8859 27.7734 50.6544 26.0545 48.7043C25.347 49.5071 24.4784 50.1488 23.5368 50.6724C23.2463 64.2932 20.9805 71.8652 12.8457 79.9998H20.2797C25.8506 74.429 34.8771 66.6161 37.1554 50.9371C35.9215 51.5359 34.5465 51.8859 33.0857 51.8859Z" fill="#6172FF"/>
<path d="M75.6031 31.7787C63.697 28.0877 52.5137 22.3923 42.3445 15.1805V14.0627H58.7507C59.6982 14.0627 60.5543 13.4928 60.9159 12.6161C61.2798 11.7395 61.0784 10.7323 60.4077 10.0617L57.3772 7.03119L60.4079 4.00099C61.0785 3.33036 61.2799 2.32331 60.916 1.44658C60.5545 0.570008 59.6984 0 58.7508 0H40.0009C38.7053 0 37.657 1.0483 37.657 2.34378C37.657 6.84931 37.657 10.1397 37.657 15.1818C27.4867 22.3909 16.1435 28.0893 3.88728 31.9204C3.36712 32.1807 2.98696 32.5931 2.57227 32.9687C11.0594 32.9687 69.5572 32.9687 77.3092 32.9687C76.8094 32.5214 76.2686 32.1031 75.6031 31.7787Z" fill="#6172FF"/>
<path d="M0.0012207 37.6565V41.932C0.0566902 42.1448 0.162317 43.2069 0.215755 43.4633C0.64748 45.5338 2.47313 47.1171 4.68878 47.1749V47.1963C7.09804 47.4372 9.64916 45.3352 9.64916 42.5112C9.64916 41.2157 10.6975 40.1674 11.9929 40.1674C13.2884 40.1674 14.3367 41.2157 14.3367 42.5112C14.3367 45.0953 16.4402 47.1986 19.0241 47.1986C21.6082 47.1986 23.7117 45.0952 23.7117 42.5112C23.7117 41.2157 24.76 40.1674 26.0555 40.1674C27.351 40.1674 28.3993 41.2157 28.3993 42.5112C28.3993 45.0953 30.5027 47.1986 33.0868 47.1986C35.6709 47.1986 37.7742 45.0952 37.7742 42.5112C37.7742 41.2157 38.8225 40.1674 40.118 40.1674C41.4135 40.1674 42.4618 41.2157 42.4618 42.5112C42.4618 45.0953 44.5653 47.1986 47.1494 47.1986C49.7335 47.1986 51.8368 45.0952 51.8368 42.5112C51.8368 41.2157 52.8851 40.1674 54.1806 40.1674C55.476 40.1674 56.5243 41.2157 56.5243 42.5112C56.5243 45.0953 58.6278 47.1986 61.2117 47.1986C63.7957 47.1986 65.8991 45.0952 65.8991 42.5112C65.8991 41.2157 66.9474 40.1674 68.2429 40.1674C69.6375 40.1674 70.5867 41.4079 70.5867 42.5112C70.5867 45.1517 72.786 47.1391 75.1574 47.1963V47.1749C77.6951 47.2452 79.7078 45.3589 80.0012 43.0876V37.6566C49.9378 37.6565 30.128 37.6565 0.0012207 37.6565Z" fill="#6172FF"/>
</svg>
