<svg width="32" height="39" viewBox="0 0 32 39" fill="none" xmlns="http://www.w3.org/2000/svg">
<path d="M30.3545 0H1.44545C1.0621 0 0.694439 0.134799 0.423364 0.374744C0.152289 0.614688 1.01838e-07 0.940123 1.01838e-07 1.27946V37.1042C-0.00010212 37.3453 0.0767529 37.5815 0.221709 37.7856C0.366664 37.9897 0.573822 38.1534 0.81931 38.2579C1.0648 38.3623 1.33863 38.4032 1.60924 38.3759C1.87986 38.3486 2.13625 38.2542 2.34886 38.1035L15.9 28.5063L29.4511 38.1022C29.6637 38.2528 29.9199 38.3472 30.1904 38.3746C30.4609 38.402 30.7346 38.3612 30.98 38.2569C31.2255 38.1526 31.4327 37.9891 31.5777 37.7852C31.7228 37.5812 31.7998 37.3452 31.8 37.1042V1.27946C31.8 0.940123 31.6477 0.614688 31.3766 0.374744C31.1056 0.134799 30.7379 0 30.3545 0Z" fill="#313134"/>
</svg>
