<svg width="12" height="5" viewBox="0 0 57 12" fill="none" xmlns="http://www.w3.org/2000/svg">
<path d="M54.4926 1.75736C52.1495 -0.585784 48.3505 -0.585784 46.0074 1.75736C43.6642 4.1005 43.6642 7.8995 46.0074 10.2426C48.3505 12.5858 52.1495 12.5858 54.4926 10.2426C56.8358 7.8996 56.8358 4.10059 54.4926 1.75736Z" fill="#313134"/>
<path d="M32.4926 1.75736C30.1495 -0.585785 26.3505 -0.585785 24.0074 1.75736C21.6642 4.1005 21.6642 7.8995 24.0074 10.2426C26.3505 12.5858 30.1495 12.5858 32.4926 10.2426C34.8358 7.8996 34.8358 4.10059 32.4926 1.75736Z" fill="#313134"/>
<path d="M10.4926 1.75736C8.1495 -0.585784 4.3505 -0.585784 2.00736 1.75736C-0.335786 4.1005 -0.335786 7.8995 2.00736 10.2426C4.3505 12.5858 8.1495 12.5858 10.4926 10.2426C12.8358 7.8996 12.8358 4.10059 10.4926 1.75736Z" fill="#313134"/>
</svg>
