<svg width="53" height="53" viewBox="0 0 53 53" fill="none" xmlns="http://www.w3.org/2000/svg">
<path d="M52.7219 2.97101L30.3781 51.721C30.1912 52.1294 29.8741 52.4642 29.4766 52.6733C29.0791 52.8823 28.6235 52.9537 28.1811 52.8763C27.7387 52.7989 27.3344 52.577 27.0315 52.2454C26.7286 51.9138 26.5442 51.4912 26.507 51.0436L24.6179 28.3815L1.95586 26.4925C1.50828 26.4553 1.08564 26.2708 0.754048 25.9679C0.422452 25.665 0.200597 25.2607 0.12318 24.8183C0.0457638 24.3759 0.117151 23.9204 0.326178 23.5228C0.535205 23.1253 0.870084 22.8083 1.27844 22.6213L50.0284 0.277576C50.4053 0.104861 50.826 0.0515961 51.234 0.124933C51.6421 0.19827 52.0179 0.394696 52.311 0.687836C52.6041 0.980976 52.8006 1.35679 52.8739 1.76481C52.9472 2.17284 52.894 2.59353 52.7213 2.9704L52.7219 2.97101Z" fill="#313134"/>
</svg>
