<svg width="30" height="30" viewBox="0 0 30 30" fill="none" xmlns="http://www.w3.org/2000/svg">
<g clip-path="url(#clip0_86_407)">
<path d="M0.877601 22.911H23.8474C24.0534 22.911 24.2525 22.839 24.4104 22.7076C24.6311 22.5228 29.6637 18.1934 29.9706 8.8479H5.30151C4.99581 17.3311 0.360956 21.3185 0.31279 21.3583C0.030414 21.5969 -0.0734774 21.9866 0.0535595 22.3334C0.179718 22.6793 0.508502 22.911 0.877601 22.911V22.911Z" fill="#6A6A6A"/>
<path d="M29.1212 3.5743H24.7265V2.69535C24.7265 2.20314 24.3397 1.81641 23.8475 1.81641C23.3553 1.81641 22.9686 2.20314 22.9686 2.69535V3.5743H18.5152V2.69535C18.5152 2.20314 18.1285 1.81641 17.6363 1.81641C17.1441 1.81641 16.7574 2.20314 16.7574 2.69535V3.5743H12.3626V2.69535C12.3626 2.20314 11.9759 1.81641 11.4837 1.81641C10.9915 1.81641 10.6047 2.20314 10.6047 2.69535V3.5743H6.21C5.71779 3.5743 5.33105 3.96103 5.33105 4.45324V7.09008H30.0001V4.45324C30.0001 3.96103 29.6134 3.5743 29.1212 3.5743Z" fill="#6A6A6A"/>
<path d="M25.5393 24.0553C25.062 24.4527 24.4629 24.669 23.8475 24.669H5.33105V27.3059C5.33105 27.7917 5.72418 28.1848 6.21 28.1848H29.1212C29.607 28.1848 30.0001 27.7917 30.0001 27.3059V17.4531C28.3055 21.6106 25.9408 23.7192 25.5393 24.0553Z" fill="#6A6A6A"/>
</g>
<defs>
<clipPath id="clip0_86_407">
<rect width="30" height="30" fill="white"/>
</clipPath>
</defs>
</svg>
