<svg width="30" height="30" viewBox="0 0 30 30" fill="none" xmlns="http://www.w3.org/2000/svg">
<path d="M14.7784 2C9.38656 2 5 6.38656 5 11.7783C5 18.4697 13.7507 28.293 14.1233 28.7079C14.4732 29.0977 15.0842 29.097 15.4335 28.7079C15.8061 28.293 24.5568 18.4697 24.5568 11.7783C24.5567 6.38656 20.1702 2 14.7784 2ZM14.7784 16.6981C12.0656 16.6981 9.85869 14.4911 9.85869 11.7783C9.85869 9.06557 12.0657 6.85863 14.7784 6.85863C17.4911 6.85863 19.698 9.06562 19.698 11.7784C19.698 14.4912 17.4911 16.6981 14.7784 16.6981Z" fill="#868789"/>
</svg>
