<svg width="30" height="30" viewBox="0 0 30 30" fill="none" xmlns="http://www.w3.org/2000/svg">
<path d="M15.5 29C22.9539 29 29 22.9539 29 15.5C29 8.04606 22.9539 2 15.5 2C8.04606 2 2 8.04606 2 15.5C2 22.9539 8.04606 29 15.5 29ZM14.5357 7.78573C14.5357 7.25535 14.9696 6.82141 15.5 6.82141C16.0304 6.82141 16.4643 7.25535 16.4643 7.78573V15.0372L20.9241 18.605C21.3388 18.9377 21.4063 19.5452 21.0736 19.9598C20.8855 20.1961 20.6059 20.3214 20.3214 20.3214C20.1093 20.3214 19.8971 20.2539 19.7188 20.1093L14.8974 16.2522C14.6707 16.0689 14.5358 15.7941 14.5358 15.5V7.78573H14.5357Z" fill="#868789"/>
</svg>
