<svg width="91" height="91" viewBox="0 0 91 91" fill="none" xmlns="http://www.w3.org/2000/svg">
<circle opacity="0.6" cx="45.5" cy="45.5" r="45.5" fill="black"/>
<path d="M54.5802 26.0035C53.9669 26.0367 53.383 26.2773 52.9245 26.686L33.9503 42.9363C33.6524 43.1905 33.4131 43.5065 33.249 43.8622C33.085 44.2179 33 44.6047 33 44.9964C33 45.3882 33.085 45.7753 33.249 46.131C33.4131 46.4867 33.6524 46.8026 33.9503 47.0569L52.9245 63.2909C53.1884 63.5544 53.5039 63.7605 53.8511 63.8963C54.1984 64.0322 54.5699 64.095 54.9425 64.0806C55.3151 64.0663 55.6808 63.9752 56.0165 63.8129C56.3522 63.6507 56.6509 63.4208 56.8937 63.1379C57.1365 62.8549 57.3183 62.5247 57.4276 62.1682C57.537 61.8117 57.5715 61.4366 57.5292 61.0661C57.4868 60.6957 57.3684 60.3378 57.1813 60.0153C56.9943 59.6927 56.7427 59.4123 56.4422 59.1915L39.8695 44.9993L56.4422 30.8017C56.883 30.4396 57.1982 29.9474 57.3429 29.3956C57.4876 28.8438 57.4544 28.2606 57.248 27.7288C57.0416 27.1969 56.6726 26.7436 56.1935 26.4339C55.7145 26.1242 55.1499 25.9737 54.5802 26.0038V26.0035Z" fill="white"/>
</svg>
