<svg width="91" height="91" viewBox="0 0 91 91" fill="none" xmlns="http://www.w3.org/2000/svg">
<circle opacity="0.6" r="45.5" transform="matrix(-1 0 0 1 45.5 45.5)" fill="black"/>
<path d="M36.4198 26.0035C37.0331 26.0367 37.617 26.2773 38.0755 26.686L57.0497 42.9363C57.3476 43.1905 57.5869 43.5065 57.751 43.8622C57.915 44.2179 58 44.6047 58 44.9964C58 45.3882 57.915 45.7753 57.751 46.131C57.5869 46.4867 57.3476 46.8026 57.0497 47.0569L38.0755 63.2909C37.8116 63.5544 37.4961 63.7605 37.1489 63.8963C36.8016 64.0322 36.4301 64.095 36.0575 64.0806C35.6849 64.0663 35.3192 63.9752 34.9835 63.8129C34.6478 63.6507 34.3491 63.4208 34.1063 63.1379C33.8635 62.8549 33.6817 62.5247 33.5724 62.1682C33.463 61.8117 33.4285 61.4366 33.4708 61.0661C33.5132 60.6957 33.6316 60.3378 33.8187 60.0153C34.0057 59.6927 34.2573 59.4123 34.5578 59.1915L51.1305 44.9993L34.5578 30.8017C34.117 30.4396 33.8018 29.9474 33.6571 29.3956C33.5124 28.8438 33.5456 28.2606 33.752 27.7288C33.9584 27.1969 34.3274 26.7436 34.8065 26.4339C35.2855 26.1242 35.8501 25.9737 36.4198 26.0038V26.0035Z" fill="white"/>
</svg>
