<svg width="66" height="82" viewBox="0 0 66 82" fill="none" xmlns="http://www.w3.org/2000/svg">
<path d="M44.8942 13.4959C47.6773 10.0147 49.5656 5.34095 49.0679 0.564697C44.9939 0.767382 40.0224 3.25269 37.1441 6.7362C34.5596 9.71968 32.2723 14.5892 32.8688 19.1651C37.4415 19.5617 42.0109 16.8792 44.8942 13.4959Z" fill="black"/>
<path d="M49.0173 20.0585C42.3758 19.6628 36.7288 23.8278 33.5569 23.8278C30.3837 23.8278 25.5266 20.2579 20.2735 20.354C13.4362 20.4546 7.092 24.3204 3.62235 30.4688C-3.51411 42.7689 1.73908 61.0143 8.67885 71.0317C12.0488 75.9876 16.1108 81.4448 21.4623 81.2486C26.5188 81.0501 28.5009 77.9742 34.647 77.9742C40.789 77.9742 42.5744 81.2486 47.9268 81.1493C53.4778 81.0501 56.9479 76.1907 60.3178 71.2298C64.1841 65.58 65.7668 60.125 65.8661 59.8254C65.7663 59.7261 55.1625 55.6581 55.0642 43.4605C54.964 33.2473 63.3895 28.3889 63.7861 28.0879C59.0288 21.0516 51.5945 20.2579 49.0173 20.0585Z" fill="black"/>
</svg>
