<svg width="93" height="93" viewBox="0 0 93 93" fill="none" xmlns="http://www.w3.org/2000/svg">
<circle cx="46.5" cy="46.5" r="46.5" fill="white"/>
<path d="M78.0171 40.4893H47.6409V52.9448L65.1351 52.9486C64.4257 57.0929 62.1421 60.6257 58.6433 62.981V62.9833C58.6444 62.9826 58.646 62.9818 58.6471 62.981L58.3321 70.4256L69.0608 71.0583C69.0593 71.0594 69.0577 71.061 69.0566 71.0621H69.0569C75.1374 65.4346 78.6213 57.1157 78.6213 47.2872C78.6209 44.9242 78.4096 42.6634 78.0171 40.4893Z" fill="#0085F7"/>
<path d="M58.6435 62.9812C58.6423 62.9819 58.6408 62.9827 58.6396 62.9835C55.7415 64.9371 52.0097 66.0798 47.6449 66.0798C39.2091 66.0798 32.053 60.3957 29.4902 52.7337H29.4891C29.4895 52.7348 29.4898 52.7364 29.4902 52.7375L20.5335 51.3191L18.75 61.07C24.0725 71.6294 35.0097 78.875 47.6453 78.875C56.3769 78.875 63.7127 76.0042 69.0533 71.0619C69.0549 71.0607 69.0564 71.0596 69.0576 71.058L58.6435 62.9812Z" fill="#00A94B"/>
<path d="M28.4815 46.5507C28.4815 44.3993 28.8401 42.3197 29.4932 40.3645L26.6965 32.0305H18.7511C16.5507 36.3976 15.3127 41.3269 15.3127 46.5507C15.3127 51.7745 16.5546 56.7037 18.7511 61.0708L18.7526 61.0697L29.4932 52.7368C29.4928 52.7356 29.4925 52.7345 29.4921 52.7329C28.8397 50.7794 28.4815 48.7009 28.4815 46.5507Z" fill="#FFBB00"/>
<path d="M47.6449 14.2234C35.012 14.2234 24.0702 21.4702 18.748 32.0311L29.4898 40.3651C32.0526 32.7031 39.2087 27.019 47.6445 27.019C52.4115 27.019 56.6806 28.661 60.0511 31.8692L69.2796 22.6484C63.6749 17.4277 56.3676 14.2234 47.6449 14.2234Z" fill="#FF4031"/>
</svg>
