<svg width="178" height="178" viewBox="0 0 178 178" fill="none" xmlns="http://www.w3.org/2000/svg">
<g filter="url(#filter0_dd_63_205)">
<circle cx="89" cy="89" r="55" fill="white"/>
</g>
<g clip-path="url(#clip0_63_205)">
<path d="M102.5 114.485L101.592 118.198C98.8671 119.273 96.6906 120.092 95.07 120.655C93.4475 121.219 91.5624 121.5 89.4145 121.5C86.1161 121.5 83.5505 120.692 81.7207 119.087C79.8908 117.476 78.9757 115.434 78.9757 112.957C78.9757 111.998 79.0421 111.012 79.1801 110.007C79.3194 109.001 79.5407 107.868 79.8437 106.601L83.2487 94.5492C83.5516 93.3951 83.8091 92.3016 84.0154 91.2676C84.2245 90.24 84.3253 89.2945 84.3253 88.4434C84.3253 86.9042 84.0066 85.8277 83.3722 85.2224C82.7378 84.6189 81.5273 84.3125 79.7301 84.3125C78.8498 84.3125 77.9451 84.4534 77.0229 84.7261C76.0967 84.9999 75.305 85.2644 74.6403 85.5102L75.5508 81.7946C77.7814 80.8864 79.9136 80.1087 81.9531 79.4632C83.9926 78.816 85.9197 78.4921 87.7426 78.4921C91.0183 78.4921 93.546 79.2838 95.321 80.8672C97.0961 82.4518 97.9833 84.5059 97.9833 87.0371C97.9833 87.5608 97.9251 88.4836 97.7998 89.8025C97.6775 91.1243 97.4497 92.3354 97.1177 93.437L93.7272 105.441C93.4493 106.405 93.1994 107.507 92.9821 108.747C92.7578 109.979 92.6506 110.921 92.6506 111.552C92.6506 113.146 93.006 114.234 93.7184 114.813C94.4361 115.391 95.6723 115.679 97.4282 115.679C98.2525 115.679 99.1904 115.533 100.233 115.246C101.272 114.958 102.03 114.706 102.5 114.485ZM103.36 64.0907C103.36 66.1821 102.572 67.9682 100.988 69.4369C99.4077 70.9107 97.5039 71.6482 95.2768 71.6482C93.0427 71.6482 91.1342 70.9107 89.5362 69.4369C87.9412 67.9676 87.1419 66.1821 87.1419 64.0907C87.1419 62.0034 87.9412 60.2144 89.5362 58.7271C91.1313 57.2422 93.0432 56.5 95.2768 56.5C97.5033 56.5 99.4077 57.2439 100.988 58.7271C102.573 60.2144 103.36 62.004 103.36 64.0907Z" fill="#202020"/>
</g>
<defs>
<filter id="filter0_dd_63_205" x="0" y="0" width="178" height="178" filterUnits="userSpaceOnUse" color-interpolation-filters="sRGB">
<feFlood flood-opacity="0" result="BackgroundImageFix"/>
<feColorMatrix in="SourceAlpha" type="matrix" values="0 0 0 0 0 0 0 0 0 0 0 0 0 0 0 0 0 0 127 0" result="hardAlpha"/>
<feOffset dx="4" dy="4"/>
<feGaussianBlur stdDeviation="15"/>
<feComposite in2="hardAlpha" operator="out"/>
<feColorMatrix type="matrix" values="0 0 0 0 0.733333 0 0 0 0 0.752941 0 0 0 0 0.752941 0 0 0 0.2 0"/>
<feBlend mode="normal" in2="BackgroundImageFix" result="effect1_dropShadow_63_205"/>
<feColorMatrix in="SourceAlpha" type="matrix" values="0 0 0 0 0 0 0 0 0 0 0 0 0 0 0 0 0 0 127 0" result="hardAlpha"/>
<feOffset dx="-4" dy="-4"/>
<feGaussianBlur stdDeviation="15"/>
<feComposite in2="hardAlpha" operator="out"/>
<feColorMatrix type="matrix" values="0 0 0 0 0.733333 0 0 0 0 0.752941 0 0 0 0 0.752941 0 0 0 0.2 0"/>
<feBlend mode="normal" in2="effect1_dropShadow_63_205" result="effect2_dropShadow_63_205"/>
<feBlend mode="normal" in="SourceGraphic" in2="effect2_dropShadow_63_205" result="shape"/>
</filter>
<clipPath id="clip0_63_205">
<rect width="65" height="65" fill="white" transform="translate(56.5 56.5)"/>
</clipPath>
</defs>
</svg>
