<svg width="57" height="67" viewBox="0 0 57 67" fill="none" xmlns="http://www.w3.org/2000/svg">
<path d="M51.1225 17.3101C51.236 16.3882 51.2953 15.4495 51.2953 14.497C51.2953 6.49062 44.8048 0 36.7983 0H12.5707C11.0467 0 9.74558 1.10053 9.49276 2.60332L0.565532 55.6635C0.245188 57.5675 1.71291 59.3026 3.64348 59.3026H12.5041C14.0281 59.3026 15.3537 58.2028 15.6064 56.6999C15.6064 56.6999 15.6212 56.6119 15.6479 56.4533H15.648L14.4132 63.7926C14.1311 65.4706 15.4246 67 17.1262 67H24.8779C26.2212 67 27.368 66.0299 27.5907 64.7054L29.793 51.6168C30.1726 49.3605 32.1259 47.7085 34.4137 47.7085H36.4502C47.5117 47.7085 56.4787 38.7413 56.4787 27.6799C56.4787 23.3996 54.363 19.6161 51.1225 17.3101Z" fill="#002987"/>
<path d="M51.1225 17.3101C49.7362 28.5874 40.1246 37.3198 28.4726 37.3198H21.7117C20.1858 37.3198 18.8679 38.3361 18.4545 39.7732L14.4133 63.7924C14.1311 65.4705 15.4246 67 17.1262 67H24.8779C26.2212 67 27.368 66.0299 27.5907 64.7054L29.793 51.6168C30.1726 49.3605 32.1259 47.7084 34.4137 47.7084H36.4502C47.5117 47.7084 56.4787 38.7413 56.4787 27.6799C56.4787 23.3996 54.363 19.6161 51.1225 17.3101Z" fill="#0085CC"/>
<path d="M21.7117 37.3197H28.4725C40.1247 37.3197 49.7363 28.5873 51.1225 17.3101C49.0434 15.8306 46.5026 14.9575 43.7564 14.9575H26.11C24.1009 14.9575 22.3855 16.4084 22.0521 18.3896L18.4543 39.773C18.8677 38.3359 20.1857 37.3197 21.7117 37.3197Z" fill="#00186A"/>
</svg>
