<svg width="62" height="62" viewBox="0 0 62 62" fill="none" xmlns="http://www.w3.org/2000/svg">
<path d="M25.2812 31C25.2812 34.1529 27.8471 36.7188 31 36.7188C34.1529 36.7188 36.7188 34.1529 36.7188 31C36.7188 27.8471 34.1529 25.2812 31 25.2812C27.8471 25.2812 25.2812 27.8471 25.2812 31Z" fill="white"/>
<path d="M25.2812 50.0625C25.2812 53.2154 27.8471 55.7812 31 55.7812C34.1529 55.7812 36.7188 53.2154 36.7188 50.0625C36.7188 46.9096 34.1529 44.3438 31 44.3438C27.8471 44.3438 25.2812 46.9096 25.2812 50.0625Z" fill="white"/>
<path d="M25.2812 11.9375C25.2812 15.0904 27.8471 17.6562 31 17.6562C34.1529 17.6562 36.7188 15.0904 36.7188 11.9375C36.7188 8.78456 34.1529 6.21875 31 6.21875C27.8471 6.21875 25.2812 8.78456 25.2812 11.9375Z" fill="white"/>
</svg>
