<svg width="60" height="60" viewBox="0 0 60 60" fill="none" xmlns="http://www.w3.org/2000/svg">
<path d="M54.9089 15.2317C54.696 13.7798 53.9805 12.4538 52.8918 11.494C51.8032 10.5342 50.4136 10.0042 48.975 10H12.0257C10.587 10.0042 9.19743 10.5342 8.10882 11.494C7.0202 12.4538 6.30462 13.7798 6.0918 15.2317L30.5003 31.3483L54.9089 15.2317Z" fill="white"/>
<path d="M31.3869 34.7333C31.1227 34.9077 30.8147 35.0004 30.5 35.0004C30.1853 35.0004 29.8773 34.9077 29.6131 34.7333L6 19.1433V43.8516C6.00173 45.4817 6.6371 47.0446 7.7667 48.1972C8.8963 49.3499 10.4279 49.9982 12.0254 50H48.9746C50.5721 49.9982 52.1037 49.3499 53.2333 48.1972C54.3629 47.0446 54.9983 45.4817 55 43.8516V19.1416L31.3869 34.7333Z" fill="white"/>
</svg>
