<svg width="60" height="60" viewBox="0 0 60 60" fill="none" xmlns="http://www.w3.org/2000/svg">
<path d="M36.9547 48.3474C36.9547 50.822 35.6353 52.716 33.4927 53.954C31.3507 55.1913 28.7113 55.1913 26.5733 53.954C24.43 52.716 23.1113 50.822 23.1113 48.3474" fill="white"/>
<path d="M30.0322 5.13867C31.9202 5.13867 33.4409 6.30267 33.4409 8.09267C33.4409 9.21934 33.4802 10.06 34.1882 10.2753C40.2089 12.0933 44.0696 16.3547 44.0696 21.8887V31.19C44.0696 35.4513 45.8129 36.314 48.0069 37.944C51.1842 40.3007 50.4589 45.208 46.8129 45.2047H13.2529C9.6069 45.208 8.88157 40.3007 12.0589 37.944C14.2502 36.314 15.9962 35.4513 15.9962 31.19V21.8887C15.9962 16.3547 19.8569 12.0933 25.8776 10.2753C26.5836 10.06 26.6249 9.21934 26.6249 8.09267C26.6256 6.30267 28.1469 5.13867 30.0322 5.13867Z" fill="white"/>
</svg>
