<svg width="60" height="60" viewBox="0 0 60 60" fill="none" xmlns="http://www.w3.org/2000/svg">
<path d="M52.0763 23.3918C51.1233 23.2533 50.2137 22.9017 49.4154 22.363C48.617 21.8243 47.9505 21.1124 47.4655 20.2804C46.9804 19.4484 46.6893 18.5177 46.6137 17.5576C46.5382 16.5975 46.6803 15.6327 47.0293 14.7351C47.2512 14.1483 47.2839 13.5068 47.1228 12.9004C46.9617 12.2941 46.6149 11.7534 46.131 11.3541C43.9947 9.56017 41.563 8.1509 38.9443 7.18912C38.348 6.96761 37.6971 6.93994 37.0841 7.11004C36.4712 7.28014 35.9275 7.63933 35.5307 8.13645C34.9333 8.90029 34.1699 9.51807 33.2983 9.94294C32.4266 10.3678 31.4697 10.5886 30.5 10.5886C29.5303 10.5886 28.5734 10.3678 27.7018 9.94294C26.8301 9.51807 26.0667 8.90029 25.4694 8.13645C25.0725 7.63933 24.5289 7.28014 23.9159 7.11004C23.303 6.93994 22.652 6.96761 22.0557 7.18912C19.6378 8.07707 17.3772 9.34524 15.359 10.9458C14.8503 11.3485 14.4839 11.9035 14.3134 12.5295C14.143 13.1556 14.1774 13.8197 14.4117 14.4248C14.7886 15.3461 14.9443 16.343 14.8664 17.3354C14.7884 18.3278 14.479 19.2881 13.9629 20.1393C13.4467 20.9905 12.7383 21.7089 11.8944 22.2369C11.0505 22.7648 10.0946 23.0876 9.10337 23.1794C8.45985 23.2482 7.85542 23.5219 7.37908 23.96C6.90273 24.3981 6.57964 24.9776 6.45737 25.6131C6.15324 27.1186 6.00004 28.6506 6.00004 30.1864C5.9978 31.4722 6.1016 32.756 6.31037 34.0248C6.41427 34.6807 6.73135 35.2841 7.21259 35.7417C7.69382 36.1993 8.31241 36.4856 8.9727 36.5564C9.98568 36.6515 10.9612 36.9878 11.8175 37.5373C12.6738 38.0867 13.3861 38.8333 13.8946 39.7145C14.4032 40.5957 14.6933 41.5859 14.7406 42.6022C14.788 43.6185 14.5912 44.6314 14.1667 45.5561C13.8889 46.1576 13.82 46.8346 13.9709 47.4797C14.1218 48.1248 14.4839 48.7009 14.9997 49.1168C17.1232 50.8781 19.5315 52.2645 22.121 53.2164C22.4522 53.3311 22.7996 53.3918 23.15 53.3961C23.6305 53.395 24.1037 53.2788 24.53 53.0571C24.9563 52.8355 25.3232 52.5148 25.6 52.1221C26.1822 51.2739 26.9625 50.5807 27.8734 50.1025C28.7842 49.6243 29.798 49.3756 30.8267 49.3781C31.8234 49.3794 32.8061 49.6133 33.6965 50.0613C34.5869 50.5094 35.3604 51.1591 35.9553 51.9588C36.3511 52.4908 36.9117 52.8769 37.5498 53.0571C38.1879 53.2374 38.8677 53.2015 39.4833 52.9551C41.8512 52.0021 44.0555 50.685 46.0167 49.0514C46.5093 48.6441 46.8601 48.0911 47.0186 47.4718C47.1771 46.8525 47.1351 46.199 46.8987 45.6051C46.5145 44.6956 46.347 43.7093 46.4094 42.724C46.4718 41.7387 46.7623 40.7814 47.2581 39.9276C47.7539 39.0738 48.4413 38.347 49.2662 37.8045C50.091 37.2619 51.0307 36.9185 52.011 36.8014C52.6467 36.7135 53.2379 36.4255 53.6989 35.9792C54.1599 35.5328 54.4669 34.9513 54.5753 34.3188C54.8376 32.9564 54.9798 31.5737 55 30.1864C55.0003 28.7232 54.8636 27.2632 54.5917 25.8254C54.4814 25.2069 54.179 24.6388 53.7274 24.202C53.2759 23.7651 52.6982 23.4816 52.0763 23.3918V23.3918ZM38.6667 30.1864C38.6667 31.8016 38.1877 33.3806 37.2903 34.7236C36.393 36.0666 35.1175 37.1133 33.6253 37.7314C32.133 38.3496 30.491 38.5113 28.9068 38.1962C27.3226 37.8811 25.8674 37.1033 24.7253 35.9611C23.5832 34.819 22.8054 33.3639 22.4903 31.7797C22.1752 30.1955 22.3369 28.5535 22.955 27.0612C23.5731 25.5689 24.6199 24.2935 25.9629 23.3961C27.3059 22.4987 28.8848 22.0198 30.5 22.0198C32.666 22.0198 34.7432 22.8802 36.2747 24.4117C37.8063 25.9433 38.6667 28.0205 38.6667 30.1864Z" fill="white"/>
</svg>
