<svg width="151" height="151" viewBox="0 0 151 151" fill="none" xmlns="http://www.w3.org/2000/svg">
<g filter="url(#filter0_f_89_166)">
<circle cx="75.5" cy="75.5" r="45.5" fill="#BBC0C0" fill-opacity="0.5"/>
</g>
<circle cx="75.5" cy="75.5" r="45.5" fill="white"/>
<path d="M84.5802 56.0035C83.9669 56.0367 83.383 56.2773 82.9245 56.686L63.9503 72.9363C63.6524 73.1905 63.4131 73.5065 63.249 73.8622C63.085 74.2179 63 74.6047 63 74.9964C63 75.3882 63.085 75.7753 63.249 76.131C63.4131 76.4867 63.6524 76.8026 63.9503 77.0569L82.9245 93.2909C83.1884 93.5544 83.5039 93.7605 83.8511 93.8963C84.1984 94.0322 84.5699 94.095 84.9425 94.0806C85.3151 94.0663 85.6808 93.9752 86.0165 93.8129C86.3522 93.6507 86.6509 93.4208 86.8937 93.1379C87.1365 92.8549 87.3183 92.5247 87.4276 92.1682C87.537 91.8117 87.5715 91.4366 87.5292 91.0661C87.4868 90.6957 87.3684 90.3378 87.1813 90.0153C86.9943 89.6927 86.7427 89.4123 86.4422 89.1915L69.8695 74.9993L86.4422 60.8017C86.883 60.4396 87.1982 59.9474 87.3429 59.3956C87.4876 58.8438 87.4544 58.2606 87.248 57.7288C87.0416 57.1969 86.6726 56.7436 86.1935 56.4339C85.7145 56.1242 85.1499 55.9737 84.5802 56.0038V56.0035Z" fill="#313134"/>
<defs>
<filter id="filter0_f_89_166" x="0" y="0" width="151" height="151" filterUnits="userSpaceOnUse" color-interpolation-filters="sRGB">
<feFlood flood-opacity="0" result="BackgroundImageFix"/>
<feBlend mode="normal" in="SourceGraphic" in2="BackgroundImageFix" result="shape"/>
<feGaussianBlur stdDeviation="15" result="effect1_foregroundBlur_89_166"/>
</filter>
</defs>
</svg>
