<svg width="60" height="60" viewBox="0 0 60 60" fill="none" xmlns="http://www.w3.org/2000/svg">
<path d="M52.5 45C52.5 45.6725 52.2515 46.2573 51.7545 46.7545C51.2865 47.2515 50.7017 47.5 50 47.5C49.3275 47.5 48.7428 47.2515 48.2455 46.7545C47.7485 46.2573 47.5 45.6725 47.5 45V35C47.5 33.9765 47.2953 33.0848 46.886 32.3245C46.5058 31.5643 45.9357 30.9943 45.1755 30.614C44.4152 30.2048 43.5235 30 42.5 30H10C9.32747 30 8.7427 29.7515 8.24562 29.2545C7.74855 28.7573 7.5 28.1725 7.5 27.5C7.5 26.7983 7.74855 26.2135 8.24562 25.7455C8.7427 25.2485 9.32747 25 10 25H42.5C44.3127 25 45.9795 25.4532 47.5 26.3597C49.0497 27.2367 50.2633 28.4503 51.1403 30C52.0468 31.5205 52.5 33.1873 52.5 35V45ZM20.7456 13.2456C21.2135 12.7485 21.7983 12.5 22.5 12.5C23.2017 12.5 23.7866 12.7485 24.2544 13.2456C24.7515 13.7135 25 14.2983 25 15C25 15.7018 24.7515 16.2865 24.2544 16.7544L12.0176 28.9913C11.9298 29.1083 11.8567 28.889 11.7982 28.3333C11.7398 27.7485 11.7251 27.193 11.7544 26.6668C11.8129 26.111 11.9006 25.8917 12.0176 26.0087L24.2544 38.2455C24.7515 38.6843 25 39.269 25 40C25 40.6725 24.7515 41.2573 24.2544 41.7545C23.7866 42.2515 23.2017 42.5 22.5 42.5C21.7983 42.5 21.2135 42.2515 20.7456 41.7545L8.50878 29.5175C7.95323 28.962 7.67545 28.2895 7.67545 27.5C7.67545 26.7105 7.95323 26.038 8.50878 25.4825L20.7456 13.2456Z" fill="#9C9C9C"/>
</svg>
