<svg width="47" height="48" viewBox="0 0 47 48" fill="none" xmlns="http://www.w3.org/2000/svg">
<path d="M41.4926 2.38375C38.9725 -0.131905 34.8915 -0.131905 32.3714 2.38375L30.0882 4.67948L5.78353 28.9713L5.73188 29.0233C5.71937 29.0358 5.71937 29.0491 5.70605 29.0491C5.68022 29.0879 5.64149 29.1262 5.61606 29.165C5.61606 29.1779 5.60275 29.1779 5.60275 29.1908C5.57692 29.2295 5.56441 29.2554 5.53818 29.2941C5.52567 29.307 5.52567 29.3195 5.51276 29.3328C5.49984 29.3716 5.48693 29.3974 5.47361 29.4361C5.47361 29.4486 5.4611 29.4486 5.4611 29.462L0.0686247 45.6777C-0.0895623 46.1394 0.0306921 46.6507 0.378138 46.9933C0.622279 47.2342 0.951566 47.369 1.29417 47.3678C1.4342 47.3653 1.57301 47.3435 1.70699 47.3032L17.9103 41.8978C17.9228 41.8978 17.9228 41.8978 17.9361 41.8853C17.9768 41.8732 18.016 41.8558 18.0519 41.8332C18.062 41.832 18.0709 41.8276 18.0781 41.8207C18.1165 41.7949 18.1681 41.7687 18.2069 41.7428C18.2452 41.7174 18.2843 41.6787 18.3231 41.6528C18.336 41.6395 18.3485 41.6395 18.3485 41.627C18.3618 41.6141 18.3876 41.6016 18.4006 41.5754L44.9885 14.9875C47.5041 12.4674 47.5041 8.38638 44.9885 5.86669L41.4926 2.38375ZM17.4974 38.866L8.51871 29.8877L30.9913 7.41506L39.9701 16.3934L17.4974 38.866ZM7.25402 32.2742L15.098 40.1178L3.31953 44.0394L7.25402 32.2742ZM43.1697 13.1812L41.8021 14.5617L32.823 5.5826L34.2039 4.2025C35.7144 2.69327 38.1626 2.69327 39.6735 4.2025L43.1822 7.71126C44.6814 9.22856 44.6757 11.6712 43.1697 13.1812Z" fill="black"/>
</svg>
