<svg width="46" height="36" viewBox="0 0 46 36" fill="none" xmlns="http://www.w3.org/2000/svg">
<path d="M0.5 33C0.5 33.6725 0.748501 34.2573 1.2455 34.7545C1.7135 35.2515 2.29825 35.5 3 35.5C3.6725 35.5 4.25725 35.2515 4.7545 34.7545C5.2515 34.2573 5.5 33.6725 5.5 33V23C5.5 21.9765 5.70475 21.0848 6.114 20.3245C6.49425 19.5643 7.06425 18.9943 7.8245 18.614C8.58475 18.2048 9.4765 18 10.5 18H43C43.6725 18 44.2573 17.7515 44.7544 17.2545C45.2515 16.7573 45.5 16.1725 45.5 15.5C45.5 14.7983 45.2515 14.2135 44.7544 13.7455C44.2573 13.2485 43.6725 13 43 13H10.5C8.68725 13 7.0205 13.4532 5.5 14.3597C3.95025 15.2367 2.73675 16.4503 1.85975 18C0.953247 19.5205 0.5 21.1873 0.5 23V33ZM32.2544 1.24563C31.7865 0.748526 31.2017 0.5 30.5 0.5C29.7983 0.5 29.2134 0.748526 28.7456 1.24563C28.2486 1.71345 28 2.29825 28 3C28 3.70175 28.2486 4.28655 28.7456 4.75437L40.9824 16.9913C41.0702 17.1083 41.1433 16.889 41.2018 16.3333C41.2602 15.7485 41.2749 15.193 41.2456 14.6668C41.1871 14.111 41.0994 13.8918 40.9824 14.0087L28.7456 26.2455C28.2486 26.6843 28 27.269 28 28C28 28.6725 28.2486 29.2573 28.7456 29.7545C29.2134 30.2515 29.7983 30.5 30.5 30.5C31.2017 30.5 31.7865 30.2515 32.2544 29.7545L44.4912 17.5175C45.0468 16.962 45.3246 16.2895 45.3246 15.5C45.3246 14.7105 45.0468 14.038 44.4912 13.4825L32.2544 1.24563Z" fill="#232323"/>
</svg>
