<svg width="125" height="125" viewBox="0 0 125 125" fill="none" xmlns="http://www.w3.org/2000/svg">
<circle cx="62.5" cy="62.5" r="62.5" fill="#6172FF"/>
<g clip-path="url(#clip0_1_41)">
<path d="M93.4591 59.0601H65.9401V31.5405C65.9401 29.6421 64.3988 28.1008 62.4998 28.1008C60.6014 28.1008 59.0601 29.6421 59.0601 31.5405V59.0601H31.5405C29.6421 59.0601 28.1008 60.6014 28.1008 62.4998C28.1008 64.3989 29.6421 65.9402 31.5405 65.9402H59.0601V93.4592C59.0601 95.3582 60.6014 96.8995 62.4998 96.8995C64.3988 96.8995 65.9401 95.3582 65.9401 93.4592V65.9402H93.4591C95.3581 65.9402 96.8994 64.3989 96.8994 62.4998C96.8994 60.6014 95.3581 59.0601 93.4591 59.0601Z" fill="white"/>
</g>
<defs>
<clipPath id="clip0_1_41">
<rect width="68.7984" height="68.7984" fill="white" transform="translate(28.1008 28.1008)"/>
</clipPath>
</defs>
</svg>
