<svg width="25" height="39" viewBox="0 0 25 39" fill="none" xmlns="http://www.w3.org/2000/svg">
<path d="M21.5807 0.00345151C20.9674 0.0367191 20.3835 0.277276 19.925 0.686012L0.950823 16.9363C0.652856 17.1905 0.413588 17.5065 0.24952 17.8622C0.0854517 18.2179 0.000488281 18.6047 0.000488281 18.9964C0.000488281 19.3882 0.0854517 19.7753 0.24952 20.131C0.413588 20.4867 0.652856 20.8026 0.950823 21.0569L19.925 37.2909C20.1889 37.5544 20.5044 37.7605 20.8516 37.8963C21.1989 38.0322 21.5704 38.095 21.943 38.0806C22.3156 38.0663 22.6812 37.9752 23.017 37.8129C23.3527 37.6507 23.6514 37.4208 23.8942 37.1379C24.137 36.8549 24.3188 36.5247 24.4281 36.1682C24.5375 35.8117 24.572 35.4366 24.5296 35.0661C24.4873 34.6957 24.3688 34.3378 24.1818 34.0153C23.9948 33.6927 23.7431 33.4123 23.4427 33.1915L6.87001 18.9993L23.4427 4.80168C23.8835 4.43958 24.1987 3.94744 24.3434 3.39564C24.4881 2.84384 24.4549 2.26056 24.2485 1.72875C24.0421 1.19694 23.6731 0.743649 23.194 0.433918C22.715 0.124186 22.1504 -0.0262857 21.5807 0.0037639V0.00345151Z" fill="#313134"/>
</svg>
