<svg width="118" height="118" viewBox="0 0 118 118" fill="none" xmlns="http://www.w3.org/2000/svg">
<path d="M32.457 14C29.55 14 27.1836 16.3664 27.1836 19.2734V24.5469C27.1836 27.4539 29.55 29.8203 32.457 29.8203C35.3641 29.8203 37.7305 27.4539 37.7305 24.5469V19.2734C37.7305 16.3664 35.3641 14 32.457 14Z" fill="#6172FF"/>
<path d="M59 14C56.0929 14 53.7266 16.3664 53.7266 19.2734V24.5469C53.7266 27.4539 56.0929 29.8203 59 29.8203C61.9071 29.8203 64.2734 27.4539 64.2734 24.5469V19.2734C64.2734 16.3664 61.9071 14 59 14Z" fill="#6172FF"/>
<path d="M85.543 14C82.6359 14 80.2695 16.3664 80.2695 19.2734V24.5469C80.2695 27.4539 82.6359 29.8203 85.543 29.8203C88.45 29.8203 90.8164 27.4539 90.8164 24.5469V19.2734C90.8164 16.3664 88.45 14 85.543 14Z" fill="#6172FF"/>
<path d="M14 45.8167V96.0901C14 100.452 17.5483 104 21.9102 104H96.0898C100.452 104 104 100.452 104 96.0901V45.8167H14ZM45.8164 88.0042C39.9996 88.0042 35.2695 83.2741 35.2695 77.4573C35.2695 75.9999 36.4488 74.8206 37.9062 74.8206C39.3637 74.8206 40.543 75.9999 40.543 77.4573C40.543 80.3643 42.9093 82.7307 45.8164 82.7307C48.7235 82.7307 51.0898 80.3643 51.0898 77.4573C51.0898 74.5502 48.7235 72.1838 45.8164 72.1838H43.1797C42.1137 72.1838 41.1506 71.5428 40.7439 70.5565C40.3345 69.5703 40.5611 68.4372 41.3155 67.6828L47.3613 61.637H37.9062C36.4488 61.637 35.2695 60.4576 35.2695 59.0002C35.2695 57.5428 36.4488 56.3635 37.9062 56.3635H53.7266C54.7925 56.3635 55.7556 57.0046 56.1624 57.9909C56.5718 58.977 56.3452 60.1101 55.5907 60.8646L49.0401 67.4152C53.2836 68.7798 56.3633 72.7658 56.3633 77.4573C56.3633 83.2741 51.6332 88.0042 45.8164 88.0042ZM85.3672 88.004H64.2734C62.816 88.004 61.6367 86.8247 61.6367 85.3673C61.6367 83.9099 62.816 82.7305 64.2734 82.7305H72.1836V65.3653L66.1376 71.4113C65.1077 72.4412 63.439 72.4412 62.4091 71.4113C61.3792 70.3814 61.3792 68.7127 62.4091 67.6828L72.956 57.1359C73.7104 56.3788 74.8433 56.1522 75.8296 56.5643C76.8158 56.971 77.457 57.9341 77.457 59.0001V82.7305H85.3672C86.8246 82.7305 88.0039 83.9099 88.0039 85.3673C88.0039 86.8247 86.8246 88.004 85.3672 88.004Z" fill="#6172FF"/>
<path d="M96.0898 20.3909V24.5469C96.0898 30.3637 91.3597 35.0938 85.543 35.0938C79.7262 35.0938 74.9961 30.3637 74.9961 24.5469V19.2734H69.5469V24.5469C69.5469 30.3637 64.8168 35.0938 59 35.0938C53.1832 35.0938 48.4531 30.3637 48.4531 24.5469V19.2734H43.0039V24.5469C43.0039 30.3637 38.2738 35.0938 32.457 35.0938C26.6403 35.0938 21.9102 30.3637 21.9102 24.5469V20.3909C17.2625 22.4312 14 27.0648 14 32.457V40.543H104V32.457C104 27.0648 100.738 22.4312 96.0898 20.3909Z" fill="#6172FF"/>
</svg>
