<svg width="101" height="100" viewBox="0 0 101 100" fill="none" xmlns="http://www.w3.org/2000/svg">
<path d="M79.2106 15.6445C78.3371 12.9588 75.8114 11.0116 72.8382 11.0116C69.9266 11.0116 67.4441 12.879 66.5221 15.4784H56.6712C55.7493 12.879 53.2668 11.0116 50.3551 11.0116C47.4435 11.0116 44.961 12.879 44.039 15.4784H34.1881C33.2662 12.879 30.7837 11.0116 27.872 11.0116C24.8989 11.0116 22.3732 12.9588 21.4996 15.6445C16.2472 16.5517 12.2381 21.1378 12.2381 26.6455V80.5454C12.2381 84.24 15.2438 87.2457 18.9383 87.2457H81.7719C85.4664 87.2457 88.4722 84.24 88.4722 80.5454V26.6455C88.4722 21.1378 84.463 16.5517 79.2106 15.6445ZM70.6048 17.7119C70.6048 16.4804 71.6067 15.4784 72.8382 15.4784C74.0697 15.4784 75.0716 16.4804 75.0716 17.7119V22.1787C75.0716 23.4102 74.0697 24.4121 72.8382 24.4121C71.6067 24.4121 70.6048 23.4102 70.6048 22.1787V17.7119ZM48.1217 17.7119C48.1217 16.4804 49.1236 15.4784 50.3551 15.4784C51.5866 15.4784 52.5885 16.4804 52.5885 17.7119V22.1787C52.5885 23.4102 51.5866 24.4121 50.3551 24.4121C49.1236 24.4121 48.1217 23.4102 48.1217 22.1787V17.7119ZM25.6386 17.7119C25.6386 16.4804 26.6405 15.4784 27.872 15.4784C29.1035 15.4784 30.1054 16.4804 30.1054 17.7119V22.1787C30.1054 23.4102 29.1035 24.4121 27.872 24.4121C26.6405 24.4121 25.6386 23.4102 25.6386 22.1787V17.7119ZM84.0053 80.5454C84.0053 81.7769 83.0034 82.7789 81.7719 82.7789H18.9383C17.7068 82.7789 16.7049 81.7769 16.7049 80.5454V37.9615H84.0053V80.5454ZM84.0053 33.4947H16.7049V26.6455C16.7049 23.7339 18.5722 21.2514 21.1718 20.3294V22.1787C21.1718 25.8732 24.1775 28.879 27.872 28.879C31.5665 28.879 34.5723 25.8732 34.5723 22.1787V19.9453H43.6549V22.1787C43.6549 25.8732 46.6606 28.879 50.3551 28.879C54.0496 28.879 57.0554 25.8732 57.0554 22.1787V19.9453H66.138V22.1787C66.138 25.8732 69.1437 28.879 72.8382 28.879C76.5328 28.879 79.5385 25.8732 79.5385 22.1787V20.3294C82.138 21.2514 84.0053 23.7339 84.0053 26.6455V33.4947Z" fill="#5D5D5D"/>
<path d="M41.9196 56.256L47.4676 50.708C48.8683 49.3072 47.8768 46.8953 45.8883 46.8953H32.4878C31.2543 46.8953 30.2543 47.8952 30.2543 49.1287C30.2543 50.3621 31.2543 51.3621 32.4878 51.3621H40.4964L35.3754 56.4832C33.9746 57.8838 34.9661 60.2958 36.9546 60.2958H39.188C41.651 60.2958 43.6549 62.2996 43.6549 64.7626C43.6549 67.2256 41.651 69.2295 39.188 69.2295C36.725 69.2295 34.7212 67.2256 34.7212 64.7626C34.7212 63.5292 33.7212 62.5292 32.4878 62.5292C31.2543 62.5292 30.2543 63.5292 30.2543 64.7626C30.2543 69.6887 34.262 73.6963 39.188 73.6963C44.114 73.6963 48.1217 69.6887 48.1217 64.7626C48.1217 60.7888 45.5138 57.4127 41.9196 56.256Z" fill="#5D5D5D"/>
<path d="M72.6893 69.2295H65.9891V49.1287C65.9891 47.1481 63.5822 46.1432 62.1765 47.5495L53.2428 56.4832C52.3706 57.3554 52.3706 58.7694 53.2428 59.6417C54.1149 60.5139 55.5291 60.5139 56.4013 59.6417L61.5222 54.5206V69.2295H54.822C53.5885 69.2295 52.5885 70.2294 52.5885 71.4629C52.5885 72.6963 53.5885 73.6963 54.822 73.6963H72.6893C73.9228 73.6963 74.9228 72.6963 74.9228 71.4629C74.9228 70.2294 73.9228 69.2295 72.6893 69.2295Z" fill="#5D5D5D"/>
</svg>
