<svg width="77" height="77" viewBox="0 0 77 77" fill="none" xmlns="http://www.w3.org/2000/svg">
<path d="M16.3321 0.711914C13.8959 0.711914 11.9128 2.69503 11.9128 5.13127V9.55063C11.9128 11.9869 13.8959 13.97 16.3321 13.97C18.7684 13.97 20.7515 11.9869 20.7515 9.55063V5.13127C20.7515 2.69503 18.7684 0.711914 16.3321 0.711914Z" fill="#5E5E5E"/>
<path d="M38.5762 0.711914C36.14 0.711914 34.1569 2.69503 34.1569 5.13127V9.55063C34.1569 11.9869 36.14 13.97 38.5762 13.97C41.0125 13.97 42.9956 11.9869 42.9956 9.55063V5.13127C42.9956 2.69503 41.0125 0.711914 38.5762 0.711914Z" fill="#5E5E5E"/>
<path d="M60.8204 0.711914C58.3841 0.711914 56.401 2.69503 56.401 5.13127V9.55063C56.401 11.9869 58.3841 13.97 60.8204 13.97C63.2566 13.97 65.2397 11.9869 65.2397 9.55063V5.13127C65.2397 2.69503 63.2566 0.711914 60.8204 0.711914Z" fill="#5E5E5E"/>
<path d="M0.86438 27.3754V69.5066C0.86438 73.162 3.83802 76.1356 7.49342 76.1356H69.6591C73.3145 76.1356 76.2881 73.162 76.2881 69.5066V27.3754H0.86438ZM27.5278 62.7302C22.6531 62.7302 18.6891 58.7662 18.6891 53.8915C18.6891 52.6702 19.6774 51.6818 20.8988 51.6818C22.1202 51.6818 23.1085 52.6702 23.1085 53.8915C23.1085 56.3278 25.0916 58.3109 27.5278 58.3109C29.9641 58.3109 31.9472 56.3278 31.9472 53.8915C31.9472 51.4553 29.9641 49.4722 27.5278 49.4722H25.3182C24.4249 49.4722 23.6177 48.9349 23.2769 48.1083C22.9338 47.2819 23.1237 46.3324 23.7559 45.7001L28.8226 40.6334H20.8988C19.6774 40.6334 18.6891 39.6451 18.6891 38.4238C18.6891 37.2024 19.6774 36.2141 20.8988 36.2141H34.1569C35.0502 36.2141 35.8573 36.7513 36.1982 37.5779C36.5413 38.4043 36.3514 39.3539 35.7191 39.9862L30.2294 45.4759C33.7857 46.6195 36.3666 49.9599 36.3666 53.8915C36.3666 58.7662 32.4025 62.7302 27.5278 62.7302ZM60.673 62.7301H42.9956C41.7742 62.7301 40.7859 61.7418 40.7859 60.5204C40.7859 59.299 41.7742 58.3107 42.9956 58.3107H49.6246V43.7579L44.5578 48.8247C43.6947 49.6878 42.2963 49.6878 41.4332 48.8247C40.5701 47.9616 40.5701 46.5632 41.4332 45.7001L50.2719 36.8614C50.9042 36.2269 51.8536 36.037 52.6802 36.3823C53.5066 36.7232 54.044 37.5303 54.044 38.4236V58.3107H60.673C61.8944 58.3107 62.8827 59.299 62.8827 60.5204C62.8827 61.7418 61.8944 62.7301 60.673 62.7301Z" fill="#5E5E5E"/>
<path d="M69.6591 6.06769V9.55058C69.6591 14.4253 65.6951 18.3893 60.8204 18.3893C55.9457 18.3893 51.9816 14.4253 51.9816 9.55058V5.13123H47.415V9.55058C47.415 14.4253 43.4509 18.3893 38.5762 18.3893C33.7015 18.3893 29.7375 14.4253 29.7375 9.55058V5.13123H25.1709V9.55058C25.1709 14.4253 21.2068 18.3893 16.3321 18.3893C11.4574 18.3893 7.49342 14.4253 7.49342 9.55058V6.06769C3.59849 7.77754 0.86438 11.6607 0.86438 16.1796V22.956H76.2881V16.1796C76.2881 11.6607 73.554 7.77754 69.6591 6.06769Z" fill="#5E5E5E"/>
</svg>
