<svg width="90" height="90" viewBox="0 0 90 90" fill="none" xmlns="http://www.w3.org/2000/svg">
<g opacity="0.8" filter="url(#filter0_bf_30_463)">
<circle cx="45" cy="45" r="44" fill="#5B5B5B"/>
</g>
<path d="M32.636 24.0288C31.2803 24.0288 30.1768 25.1323 30.1768 26.488V28.9472C30.1768 30.3029 31.2803 31.4064 32.636 31.4064C33.9917 31.4064 35.0952 30.3029 35.0952 28.9472V26.488C35.0952 25.1323 33.9917 24.0288 32.636 24.0288Z" fill="white"/>
<path d="M45.0141 24.0288C43.6584 24.0288 42.5549 25.1323 42.5549 26.488V28.9472C42.5549 30.3029 43.6584 31.4064 45.0141 31.4064C46.3698 31.4064 47.4733 30.3029 47.4733 28.9472V26.488C47.4733 25.1323 46.3698 24.0288 45.0141 24.0288Z" fill="white"/>
<path d="M57.3922 24.0288C56.0365 24.0288 54.933 25.1323 54.933 26.488V28.9472C54.933 30.3029 56.0365 31.4064 57.3922 31.4064C58.7479 31.4064 59.8514 30.3029 59.8514 28.9472V26.488C59.8514 25.1323 58.7479 24.0288 57.3922 24.0288Z" fill="white"/>
<path d="M24.0289 38.8662V62.3107C24.0289 64.3448 25.6836 65.9995 27.7177 65.9995H62.3106C64.3446 65.9995 65.9994 64.3448 65.9994 62.3107V38.8662H24.0289ZM38.8661 58.5399C36.1535 58.5399 33.9477 56.3341 33.9477 53.6215C33.9477 52.9418 34.4976 52.3919 35.1773 52.3919C35.8569 52.3919 36.4069 52.9418 36.4069 53.6215C36.4069 54.9771 37.5104 56.0807 38.8661 56.0807C40.2218 56.0807 41.3253 54.9771 41.3253 53.6215C41.3253 52.2658 40.2218 51.1623 38.8661 51.1623H37.6365C37.1394 51.1623 36.6903 50.8633 36.5006 50.4033C36.3097 49.9435 36.4153 49.4151 36.7672 49.0632L39.5866 46.2438H35.1773C34.4976 46.2438 33.9477 45.6939 33.9477 45.0142C33.9477 44.3346 34.4976 43.7846 35.1773 43.7846H42.5549C43.052 43.7846 43.5011 44.0836 43.6908 44.5435C43.8817 45.0034 43.7761 45.5318 43.4242 45.8836L40.3694 48.9385C42.3483 49.5748 43.7845 51.4337 43.7845 53.6215C43.7845 56.3341 41.5787 58.5399 38.8661 58.5399ZM57.3102 58.5398H47.4733C46.7937 58.5398 46.2437 57.9898 46.2437 57.3102C46.2437 56.6306 46.7937 56.0806 47.4733 56.0806H51.1621V47.9825L48.3427 50.802C47.8624 51.2823 47.0842 51.2823 46.6039 50.802C46.1236 50.3217 46.1236 49.5435 46.6039 49.0632L51.5223 44.1448C51.8742 43.7918 52.4025 43.6861 52.8624 43.8782C53.3223 44.0679 53.6213 44.5171 53.6213 45.0141V56.0806H57.3102C57.9898 56.0806 58.5398 56.6306 58.5398 57.3102C58.5398 57.9898 57.9898 58.5398 57.3102 58.5398Z" fill="white"/>
<path d="M62.3106 27.0091V28.9472C62.3106 31.6598 60.1047 33.8657 57.3921 33.8657C54.6795 33.8657 52.4737 31.6598 52.4737 28.9472V26.488H49.9325V28.9472C49.9325 31.6598 47.7267 33.8657 45.0141 33.8657C42.3015 33.8657 40.0957 31.6598 40.0957 28.9472V26.488H37.5545V28.9472C37.5545 31.6598 35.3487 33.8657 32.6361 33.8657C29.9235 33.8657 27.7177 31.6598 27.7177 28.9472V27.0091C25.5503 27.9606 24.0289 30.1214 24.0289 32.6361V36.4068H65.9994V32.6361C65.9994 30.1214 64.4779 27.9606 62.3106 27.0091Z" fill="white"/>
<defs>
<filter id="filter0_bf_30_463" x="-125" y="-125" width="340" height="340" filterUnits="userSpaceOnUse" color-interpolation-filters="sRGB">
<feFlood flood-opacity="0" result="BackgroundImageFix"/>
<feGaussianBlur in="BackgroundImageFix" stdDeviation="63"/>
<feComposite in2="SourceAlpha" operator="in" result="effect1_backgroundBlur_30_463"/>
<feBlend mode="normal" in="SourceGraphic" in2="effect1_backgroundBlur_30_463" result="shape"/>
<feGaussianBlur stdDeviation="0.5" result="effect2_foregroundBlur_30_463"/>
</filter>
</defs>
</svg>
