<svg width="101" height="100" viewBox="0 0 101 100" fill="none" xmlns="http://www.w3.org/2000/svg">
<path d="M50.2375 7.62341C26.8845 7.62341 7.88522 26.6224 7.88522 49.9753C7.88522 73.3286 26.8845 92.328 50.2375 92.328C73.5905 92.328 92.5898 73.3286 92.5898 49.9753C92.5898 26.6224 73.5908 7.62341 50.2375 7.62341ZM50.2375 87.4363C29.5818 87.4363 12.7769 70.6313 12.7769 49.9753C12.7769 29.3198 29.5818 12.5151 50.2375 12.5151C70.8932 12.5151 87.6981 29.3198 87.6981 49.9754C87.6981 70.6314 70.8932 87.4363 50.2375 87.4363Z" fill="#5D5D5D"/>
<path d="M73.5548 27.6554C72.915 26.4653 71.4322 26.0197 70.2423 26.6593L42.7138 41.4616C42.2912 41.6888 41.9448 42.0351 41.7177 42.4578L26.9213 69.9803C26.3979 70.954 26.6018 72.1241 27.3453 72.8676C27.5101 73.0327 27.7015 73.1765 27.9179 73.2925C28.6532 73.6879 29.5007 73.6676 30.1916 73.3139L30.192 73.3145L30.2024 73.309C30.2124 73.3038 30.2222 73.2983 30.232 73.293L57.7742 58.5016C58.1968 58.2746 58.5431 57.9283 58.7707 57.5055L73.5078 30.0511C73.54 29.9956 73.5707 29.9395 73.5984 29.8819L73.6183 29.845L73.6158 29.8442C73.9291 29.1692 73.9342 28.3611 73.5548 27.6554ZM35.0686 65.1566L44.471 47.6674L52.5564 55.7531L35.0686 65.1566ZM56.0174 52.2959L47.9315 44.21L65.4193 34.8067" fill="#5D5D5D"/>
</svg>
