<svg width="118" height="118" viewBox="0 0 118 118" fill="none" xmlns="http://www.w3.org/2000/svg">
<path d="M58.9999 63.9495C61.7448 63.9495 63.95 61.722 63.95 58.9994C63.95 56.2768 61.745 54.0493 58.9999 54.0493C56.2773 54.0493 54.0498 56.2768 54.0498 58.9994C54.0498 61.722 56.2775 63.9495 58.9999 63.9495Z" fill="#6172FF"/>
<path d="M59 14C34.1376 14 14 34.1376 14 59C14 83.84 34.1376 104 59 104C83.8624 104 104 83.84 104 59C104 34.1376 83.8626 14 59 14ZM68.855 68.855L32 86L49.145 49.145L86 32L68.855 68.855Z" fill="#6172FF"/>
</svg>
