<svg width="50" height="38" viewBox="0 0 50 38" fill="none" xmlns="http://www.w3.org/2000/svg">
<path d="M31.2074 19.1712L34.0473 16.3313C34.2539 17.1044 34.375 17.9126 34.375 18.7501C34.375 23.9196 30.1695 28.1251 25 28.1251C24.1625 28.1251 23.3543 28.004 22.5812 27.7974L25.4211 24.9575C28.5262 24.7458 30.9957 22.2763 31.2074 19.1712ZM49.8031 17.9911C49.6109 17.6454 46.8852 12.8692 41.557 8.82158L39.2832 11.0954C43.1684 13.9521 45.6301 17.2837 46.5992 18.7524C44.7473 21.5724 37.4824 31.2501 25 31.2501C23.1281 31.2501 21.3875 31.0106 19.7496 30.6286L17.182 33.1962C19.5426 33.92 22.1371 34.3751 25 34.3751C41.3566 34.3751 49.466 20.1157 49.8031 19.5091C50.0656 19.0368 50.0656 18.4634 49.8031 17.9911ZM43.2922 2.66728L8.91719 37.0423C8.61211 37.3474 8.21211 37.5001 7.8125 37.5001C7.41289 37.5001 7.01289 37.3474 6.70781 37.0423C6.09727 36.4317 6.09727 35.4431 6.70781 34.8329L11.0813 30.4595C4.01094 26.1911 0.418359 19.9079 0.196875 19.5091C-0.065625 19.0368 -0.065625 18.463 0.196875 17.9907C0.533984 17.3845 8.64336 3.1251 25 3.1251C29.2293 3.1251 32.8926 4.08994 36.0242 5.5165L41.0828 0.45791C41.6934 -0.152637 42.682 -0.152637 43.2922 0.45791C43.9023 1.06846 43.9027 2.05713 43.2922 2.66728ZM13.4113 28.1294L17.3672 24.1735C16.2746 22.6407 15.625 20.7716 15.625 18.7501C15.625 13.5806 19.8305 9.3751 25 9.3751C27.0215 9.3751 28.8906 10.0247 30.4234 11.1169L33.6223 7.91807C31.0949 6.90596 28.223 6.2501 25 6.2501C12.5176 6.2501 5.25273 15.9278 3.40117 18.7478C4.57695 20.5298 7.95664 25.0407 13.4113 28.1294ZM19.6355 21.9048L28.1547 13.3856C27.2254 12.8368 26.1555 12.5001 25 12.5001C21.5539 12.5001 18.75 15.304 18.75 18.7501C18.75 19.9056 19.0867 20.9755 19.6355 21.9048Z" fill="#232323"/>
</svg>
