<svg width="118" height="118" viewBox="0 0 118 118" fill="none" xmlns="http://www.w3.org/2000/svg">
<path d="M104.502 43.8315V93.8929C104.499 96.5592 103.439 99.1156 101.554 101.001C99.6682 102.886 97.1118 103.947 94.4454 103.949H77.6846C75.9065 103.949 74.2012 103.243 72.9439 101.986C71.6866 100.728 70.9802 99.0232 70.9802 97.2451V78.8081C70.9802 77.919 70.627 77.0664 69.9984 76.4377C69.3697 75.8091 68.5171 75.4559 67.628 75.4559H50.8671C49.9781 75.4559 49.1255 75.8091 48.4968 76.4377C47.8681 77.0664 47.515 77.919 47.515 78.8081V97.2451C47.515 99.0232 46.8086 100.728 45.5513 101.986C44.294 103.243 42.5887 103.949 40.8106 103.949H24.0497C21.3834 103.947 18.827 102.886 16.9416 101.001C15.0562 99.1156 13.9959 96.5592 13.9932 93.8929V43.8315C13.9957 42.6738 14.2965 41.5362 14.8667 40.5286C15.4368 39.5211 16.257 38.6774 17.2482 38.0791L55.7982 14.9491C56.8404 14.3236 58.033 13.9932 59.2484 13.9932C60.4639 13.9932 61.6565 14.3236 62.6986 14.9491L101.249 38.0791C102.239 38.6776 103.059 39.5214 103.629 40.5289C104.199 41.5365 104.5 42.6739 104.502 43.8315Z" fill="#6172FF"/>
</svg>
