<svg width="100" height="100" viewBox="0 0 100 100" fill="none" xmlns="http://www.w3.org/2000/svg">
<path d="M48.0849 11.0309L48.0852 11.0307C48.6638 10.6835 49.326 10.5 50.0008 10.5C50.6756 10.5 51.3377 10.6835 51.9163 11.0307L51.9166 11.0309L87.6881 32.4938C87.6888 32.4942 87.6895 32.4946 87.6902 32.495C88.2411 32.8283 88.6969 33.2977 89.0139 33.8582C89.3308 34.4185 89.4982 35.0508 89.5 35.6944C89.5 35.6955 89.5 35.6965 89.5 35.6976L89.5 82.1514C89.4982 83.9638 88.7774 85.7015 87.4958 86.983C86.2143 88.2646 84.4766 88.9854 82.6642 88.9872H67.1111C66.1239 88.9872 65.1772 88.595 64.4791 87.897C63.7811 87.1989 63.3889 86.2522 63.3889 85.265V68.1539C63.3889 66.6657 62.7977 65.2385 61.7454 64.1862C60.6931 63.1339 59.2659 62.5428 57.7778 62.5428H42.2222C40.7341 62.5428 39.3069 63.1339 38.2546 64.1862C37.2023 65.2385 36.6111 66.6657 36.6111 68.1539V85.265C36.6111 86.2522 36.219 87.1989 35.5209 87.897C34.8228 88.595 33.8761 88.9872 32.8889 88.9872H17.3358C15.5234 88.9854 13.7857 88.2646 12.5042 86.983C11.2229 85.7017 10.5021 83.9645 10.5 82.1525V35.6955C10.5018 35.0516 10.6693 34.4189 10.9865 33.8584C11.3036 33.2981 11.7595 32.8288 12.3103 32.4957C12.3112 32.4952 12.312 32.4946 12.3129 32.4941L48.0849 11.0309Z" stroke="#5D5D5D" stroke-width="5"/>
</svg>
