<svg width="65" height="65" viewBox="0 0 65 65" fill="none" xmlns="http://www.w3.org/2000/svg">
<g clip-path="url(#clip0_1_65)">
<path d="M34.2426 1.7573C36.5858 4.10044 36.5858 7.89944 34.2426 10.2426C31.8995 12.5857 28.1005 12.5857 25.7574 10.2426C23.4142 7.89944 23.4142 4.10044 25.7574 1.7573C28.1004 -0.585846 31.8994 -0.585846 34.2426 1.7573Z" fill="#626365"/>
<path d="M34.2426 26.1324C36.5858 28.4755 36.5858 32.2745 34.2426 34.6176C31.8995 36.9608 28.1005 36.9608 25.7574 34.6176C23.4142 32.2745 23.4142 28.4755 25.7574 26.1324C28.1004 23.7892 31.8994 23.7892 34.2426 26.1324Z" fill="#626365"/>
<path d="M34.2426 50.5072C36.5858 52.8504 36.5858 56.6494 34.2426 58.9925C31.8995 61.3357 28.1005 61.3357 25.7574 58.9925C23.4142 56.6494 23.4142 52.8504 25.7574 50.5072C28.1004 48.1641 31.8994 48.1641 34.2426 50.5072Z" fill="#626365"/>
</g>
<defs>
<clipPath id="clip0_1_65">
<rect width="65" height="65" fill="white"/>
</clipPath>
</defs>
</svg>
