<svg width="118" height="118" viewBox="0 0 118 118" fill="none" xmlns="http://www.w3.org/2000/svg">
<path d="M59.0298 62C55.4697 62 51.9896 60.9443 49.0295 58.9664C46.0694 56.9886 43.7623 54.1774 42.4 50.8883C41.0376 47.5992 40.6811 43.98 41.3757 40.4884C42.0702 36.9967 43.7845 33.7894 46.3019 31.2721C48.8192 28.7547 52.0265 27.0404 55.5182 26.3459C59.0098 25.6513 62.629 26.0078 65.9181 27.3702C69.2071 28.7326 72.0184 31.0397 73.9962 33.9997C75.9741 36.9598 77.0298 40.4399 77.0298 44C77.0298 48.7739 75.1334 53.3523 71.7577 56.7279C68.382 60.1036 63.8037 62 59.0298 62V62ZM59.0298 32C56.6564 32 54.3363 32.7038 52.3629 34.0224C50.3896 35.3409 48.8515 37.2151 47.9432 39.4078C47.035 41.6005 46.7973 44.0133 47.2604 46.3411C47.7234 48.6689 48.8663 50.807 50.5445 52.4853C52.2227 54.1635 54.3609 55.3064 56.6887 55.7694C59.0165 56.2324 61.4293 55.9948 63.622 55.0866C65.8147 54.1783 67.6888 52.6402 69.0074 50.6668C70.326 48.6934 71.0298 46.3734 71.0298 44C71.0298 40.8174 69.7655 37.7652 67.5151 35.5147C65.2646 33.2643 62.2124 32 59.0298 32Z" fill="#6172FF"/>
<path d="M59.0302 104C52.3775 103.996 45.8086 102.516 39.7963 99.6683C33.784 96.8204 28.478 92.6748 24.2602 87.5301L22.7002 85.6101L24.2602 83.7201C28.4815 78.582 33.7891 74.4434 39.8012 71.6019C45.8133 68.7604 52.3804 67.2866 59.0302 67.2866C65.6799 67.2866 72.2471 68.7604 78.2591 71.6019C84.2712 74.4434 89.5788 78.582 93.8002 83.7201L95.3602 85.6101L93.8002 87.5301C89.5824 92.6748 84.2763 96.8204 78.2641 99.6683C72.2518 102.516 65.6829 103.996 59.0302 104V104ZM30.5602 85.6401C34.2089 89.5461 38.6216 92.6605 43.5243 94.7897C48.427 96.919 53.7151 98.0177 59.0602 98.0177C64.4053 98.0177 69.6934 96.919 74.5961 94.7897C79.4988 92.6605 83.9115 89.5461 87.5602 85.6401C83.9115 81.734 79.4988 78.6197 74.5961 76.4904C69.6934 74.3612 64.4053 73.2624 59.0602 73.2624C53.7151 73.2624 48.427 74.3612 43.5243 76.4904C38.6216 78.6197 34.2089 81.734 30.5602 85.6401V85.6401Z" fill="#6172FF"/>
<path d="M59.03 104C48.8083 104.007 38.8887 100.533 30.9041 94.1514C22.9195 87.7694 17.3455 78.8591 15.0996 68.8871C12.8538 58.9151 14.0699 48.4756 18.5477 39.2869C23.0256 30.0981 30.4984 22.7076 39.7362 18.3318C48.974 13.956 59.4263 12.8557 69.3728 15.2118C79.3193 17.568 88.1672 23.2403 94.4604 31.2952C100.754 39.35 104.117 49.3074 103.997 59.5285C103.877 69.7495 100.281 79.6252 93.8 87.53C89.5822 92.6747 84.2762 96.8203 78.2639 99.6682C72.2516 102.516 65.6827 103.996 59.03 104V104ZM59.03 20C51.3166 20 43.7763 22.2873 37.3628 26.5727C30.9493 30.8581 25.9506 36.949 22.9987 44.0754C20.0469 51.2017 19.2746 59.0433 20.7794 66.6085C22.2842 74.1738 25.9986 81.1229 31.4529 86.5772C36.9071 92.0314 43.8563 95.7458 51.4215 97.2506C58.9868 98.7554 66.8284 97.9831 73.9547 95.0313C81.081 92.0795 87.172 87.0807 91.4573 80.6672C95.7427 74.2537 98.03 66.7135 98.03 59C98.03 48.6566 93.9211 38.7368 86.6072 31.4229C79.2933 24.1089 69.3735 20 59.03 20V20Z" fill="#6172FF"/>
<path d="M26.5703 85.64C26.5703 85.64 56.7803 119.39 87.5303 89L91.4903 85.64C91.4903 85.64 65.8103 59 39.7403 74.99L26.5703 85.64Z" fill="#6172FF"/>
<path d="M59.0298 59C67.314 59 74.0298 52.2843 74.0298 44C74.0298 35.7157 67.314 29 59.0298 29C50.7455 29 44.0298 35.7157 44.0298 44C44.0298 52.2843 50.7455 59 59.0298 59Z" fill="#6172FF"/>
</svg>
