<svg width="100" height="100" viewBox="0 0 100 100" fill="none" xmlns="http://www.w3.org/2000/svg">
<path d="M79.9717 20.0282C71.9724 12.029 61.3365 7.62354 50.024 7.62354C38.7115 7.62354 28.0756 12.029 20.0764 20.0282C12.0772 28.0274 7.67175 38.6633 7.67175 49.9758C7.67175 61.2883 12.0772 71.9242 20.0764 79.9234C28.0756 87.9227 38.7115 92.3281 50.024 92.3281C61.3365 92.3281 71.9724 87.9227 79.9717 79.9234C87.9709 71.9242 92.3763 61.2883 92.3763 49.9758C92.3763 38.6633 87.9709 28.0274 79.9717 20.0282ZM26.0529 78.6458C27.4514 66.6127 37.7971 57.3223 50.024 57.3223C56.4697 57.3223 62.5308 59.8336 67.0901 64.3922C70.9417 68.2445 73.3709 73.2742 73.9958 78.6452C67.5011 84.0846 59.1387 87.3649 50.024 87.3649C40.9094 87.3649 32.5476 84.0853 26.0529 78.6458ZM50.024 52.2105C42.9315 52.2105 37.1605 46.4396 37.1605 39.347C37.1605 32.2539 42.9315 26.4835 50.024 26.4835C57.1166 26.4835 62.8875 32.2539 62.8875 39.347C62.8875 46.4396 57.1166 52.2105 50.024 52.2105ZM78.2675 74.4497C77.0028 69.3509 74.3655 64.6494 70.5992 60.8831C67.5489 57.8329 63.9403 55.5445 60.0046 54.1105C64.7358 50.9019 67.8507 45.4812 67.8507 39.347C67.8507 29.5177 59.8534 21.5204 50.024 21.5204C40.1947 21.5204 32.1974 29.5177 32.1974 39.347C32.1974 45.4844 35.3149 50.9071 40.0499 54.115C36.429 55.4346 33.0782 57.4748 30.1953 60.1606C26.0206 64.0484 23.1215 69.0058 21.7773 74.4459C16.0846 67.8833 12.6349 59.325 12.6349 49.9758C12.6349 29.3593 29.4075 12.5867 50.024 12.5867C70.6405 12.5867 87.4132 29.3593 87.4132 49.9758C87.4132 59.327 83.9622 67.8871 78.2675 74.4497Z" fill="#5D5D5D"/>
</svg>
