<svg width="50" height="50" viewBox="0 0 50 50" fill="none" xmlns="http://www.w3.org/2000/svg">
<path fill-rule="evenodd" clip-rule="evenodd" d="M0.000244141 0H22.6523V22.652H0.000244141V0ZM5.24887 5.24863V17.4033H17.4036V5.24863H5.24887Z" fill="#313134"/>
<path fill-rule="evenodd" clip-rule="evenodd" d="M0.000244141 27.3483H22.6523V50H0.000244141V27.3483ZM5.24887 32.5969V44.7514H17.4036V32.5969H5.24887Z" fill="#313134"/>
<path fill-rule="evenodd" clip-rule="evenodd" d="M27.3489 0H50.0006V22.652H27.3489V0ZM32.5975 5.24863V17.4033H44.752V5.24863H32.5975Z" fill="#313134"/>
<path fill-rule="evenodd" clip-rule="evenodd" d="M13.8127 13.9503H8.84033V8.70166H13.8127V13.9503Z" fill="#313134"/>
<path fill-rule="evenodd" clip-rule="evenodd" d="M13.8127 41.2983H8.84033V36.0497H13.8127V41.2983Z" fill="#313134"/>
<path fill-rule="evenodd" clip-rule="evenodd" d="M49.8619 50H44.8896V44.7513H49.8619V50Z" fill="#313134"/>
<path fill-rule="evenodd" clip-rule="evenodd" d="M41.16 50H36.1877V44.7513H41.16V50Z" fill="#313134"/>
<path fill-rule="evenodd" clip-rule="evenodd" d="M41.16 13.9503H36.1877V8.70166H41.16V13.9503Z" fill="#313134"/>
<path fill-rule="evenodd" clip-rule="evenodd" d="M27.3489 27.3483H41.2989V34.8068H44.752V27.4863H50.0006V40.0555H36.0503V32.5969H32.5975V49.862H27.3489V27.3483Z" fill="#313134"/>
</svg>
