<svg width="49" height="45" viewBox="0 0 49 45" fill="none" xmlns="http://www.w3.org/2000/svg">
<path d="M9.1502 45C7.5002 45 6.0002 43.5 6.1502 41.7L6.3002 36.9C2.7002 36.3 0.000198364 33.15 0.000198364 29.55V7.5C0.000198364 3.3 3.3002 0 7.5002 0H40.9502C45.1502 0 48.4502 3.3 48.4502 7.5V29.55C48.4502 33.75 45.1502 37.05 40.9502 37.05H21.6002L10.6502 44.7C10.2002 44.85 9.7502 45 9.1502 45ZM7.6502 3C5.1002 3 3.1502 4.95 3.1502 7.5V29.55C3.1502 32.25 5.4002 34.2 7.9502 34.05C8.8502 34.05 9.4502 34.8 9.4502 35.55L9.1502 42L20.2502 34.35C20.5502 34.2 20.8502 34.05 21.1502 34.05H40.9502C43.5002 34.05 45.4502 32.1 45.4502 29.55V7.5C45.4502 4.95 43.5002 3 40.9502 3H7.6502ZM23.4002 21.6C23.2502 21.45 23.1002 21.15 22.9502 20.7L21.9002 12.15C21.4502 9.15 26.8502 9.15 26.2502 12.15L25.2002 20.55C25.3502 21.75 24.1502 22.2 23.4002 21.6ZM22.8002 26.7C21.0002 24.75 23.7002 21.75 25.8002 23.7C27.6002 25.8 24.7502 28.65 22.8002 26.7Z" fill="#FF3535"/>
</svg>
