<svg width="18" height="30" viewBox="0 0 18 30" fill="none" xmlns="http://www.w3.org/2000/svg">
<path d="M2.74998 29.5833C3.02416 29.5849 3.29595 29.5324 3.54978 29.4287C3.80361 29.325 4.03448 29.1722 4.22914 28.9792L16.7291 16.4792C17.1172 16.0888 17.335 15.5608 17.335 15.0104C17.335 14.46 17.1172 13.932 16.7291 13.5417L4.22914 1.04166C3.8306 0.700358 3.31794 0.522012 2.79362 0.542264C2.26929 0.562517 1.77192 0.779875 1.40089 1.15091C1.02986 1.52194 0.812498 2.01931 0.792244 2.54363C0.771992 3.06796 0.950338 3.58062 1.29165 3.97916L12.3125 15L1.29165 26.0208C0.9991 26.311 0.79916 26.6814 0.717108 27.0851C0.635056 27.4889 0.674576 27.908 0.830669 28.2893C0.986765 28.6706 1.25242 28.9971 1.59406 29.2274C1.93569 29.4577 2.33795 29.5816 2.74998 29.5833Z" fill="black"/>
</svg>
