<svg width="35" height="42" viewBox="0 0 35 42" fill="none" xmlns="http://www.w3.org/2000/svg">
<path d="M33.214 0H1.58162C1.16215 0 0.759857 0.147498 0.463246 0.410045C0.166635 0.672593 1.11432e-07 1.02868 1.11432e-07 1.39998V40.5995C-0.00011174 40.8633 0.0839831 41.1218 0.242594 41.3451C0.401205 41.5684 0.627877 41.7476 0.89649 41.8618C1.1651 41.9761 1.46473 42.0209 1.76083 41.991C2.05694 41.9611 2.33748 41.8578 2.57013 41.6929L17.3978 31.1916L32.2255 41.6915C32.458 41.8563 32.7384 41.9596 33.0344 41.9895C33.3303 42.0195 33.6298 41.9748 33.8984 41.8607C34.167 41.7466 34.3937 41.5677 34.5524 41.3446C34.7111 41.1214 34.7954 40.8632 34.7956 40.5995V1.39998C34.7956 1.02868 34.629 0.672593 34.3324 0.410045C34.0358 0.147498 33.6335 0 33.214 0Z" fill="#313134"/>
</svg>
