<svg width="47" height="47" viewBox="0 0 47 47" fill="none" xmlns="http://www.w3.org/2000/svg">
<path d="M46.1741 42.2455L37.1412 33.2126C39.8788 29.6288 41.3802 25.2819 41.3808 20.695C41.3808 15.1673 39.228 9.97011 35.3187 6.06149C31.4101 2.15287 26.2135 0 20.6852 0C15.1575 0 9.96025 2.15287 6.05163 6.06149C-2.01721 14.131 -2.01721 27.2604 6.05163 35.3285C9.96025 39.2378 15.1575 41.3907 20.6852 41.3907C25.2721 41.3901 29.6189 39.8887 33.2027 37.1511L42.2356 46.184C42.7789 46.728 43.4922 47 44.2049 47C44.9175 47 45.6308 46.728 46.1741 46.184C47.2621 45.0967 47.2621 43.3328 46.1741 42.2455ZM9.99017 31.39C4.09324 25.4931 4.09392 15.8976 9.99017 10C12.8468 7.14404 16.6453 5.57053 20.6852 5.57053C24.7257 5.57053 28.5235 7.14404 31.3801 10C34.2368 12.8567 35.8103 16.6552 35.8103 20.695C35.8103 24.7356 34.2368 28.5333 31.3801 31.39C28.5235 34.2467 24.7257 35.8202 20.6852 35.8202C16.6453 35.8202 12.8468 34.2467 9.99017 31.39Z" fill="#626365"/>
</svg>
