<svg width="48" height="50" viewBox="0 0 48 50" fill="none" xmlns="http://www.w3.org/2000/svg">
<path d="M38.4615 31.9615C35.6114 31.9615 33.0999 33.3636 31.5224 35.4957L17.8836 28.5119C18.1101 27.7401 18.2692 26.9402 18.2692 26.0962C18.2692 24.9513 18.0345 23.863 17.629 22.8619L31.9026 14.2727C33.4911 16.1369 35.8259 17.3462 38.4615 17.3462C43.2336 17.3462 47.1154 13.4643 47.1154 8.69231C47.1154 3.92029 43.2336 0.0384617 38.4615 0.0384617C33.6895 0.0384617 29.8077 3.92029 29.8077 8.69231C29.8077 9.79202 30.0341 10.8352 30.4098 11.8037L16.0937 20.4181C14.5066 18.6092 12.2055 17.4423 9.61538 17.4423C4.84336 17.4423 0.961533 21.3241 0.961533 26.0962C0.961533 30.8682 4.84336 34.75 9.61538 34.75C12.5125 34.75 15.0664 33.3068 16.638 31.1148L30.2318 38.0759C29.9814 38.8841 29.8077 39.726 29.8077 40.6154C29.8077 45.3874 33.6895 49.2692 38.4615 49.2692C43.2336 49.2692 47.1154 45.3874 47.1154 40.6154C47.1154 35.8434 43.2336 31.9615 38.4615 31.9615Z" fill="#626365"/>
</svg>
