<svg width="50" height="50" viewBox="0 0 50 50" fill="none" xmlns="http://www.w3.org/2000/svg">
<path d="M24.1379 0C17.4776 0 12.069 5.40862 12.069 12.069C12.069 18.7293 17.4776 24.1379 24.1379 24.1379C30.7983 24.1379 36.2069 18.7293 36.2069 12.069C36.2069 5.40862 30.7983 0 24.1379 0ZM24.1379 3.44828C28.8966 3.44828 32.7586 7.31035 32.7586 12.069C32.7586 16.8276 28.8966 20.6897 24.1379 20.6897C19.3793 20.6897 15.5172 16.8276 15.5172 12.069C15.5172 7.31035 19.3793 3.44828 24.1379 3.44828Z" fill="#232323"/>
<path d="M3.44828 44.8276H25C25.9517 44.8276 26.7241 45.6 26.7241 46.5517C26.7241 47.5034 25.9517 48.2759 25 48.2759H1.72414C0.772414 48.2759 0 47.5034 0 46.5517C0 46.5517 0 45.1293 0 43.1034C0 34.5328 6.94655 27.5862 15.5172 27.5862H25C25.9517 27.5862 26.7241 28.3586 26.7241 29.3103C26.7241 30.2621 25.9517 31.0345 25 31.0345H15.5172C8.85172 31.0345 3.44828 36.4379 3.44828 43.1034V44.8276Z" fill="#232323"/>
<path d="M38.7948 27.5862C32.6103 27.5862 27.5896 32.6069 27.5896 38.7914C27.5896 44.9759 32.6103 49.9965 38.7948 49.9965C44.9793 49.9965 50 44.9759 50 38.7914C50 32.6069 44.9793 27.5862 38.7948 27.5862ZM38.7948 31.0345C43.0758 31.0345 46.5517 34.5103 46.5517 38.7914C46.5517 43.0724 43.0758 46.5483 38.7948 46.5483C34.5138 46.5483 31.0379 43.0724 31.0379 38.7914C31.0379 34.5103 34.5138 31.0345 38.7948 31.0345Z" fill="#232323"/>
<path d="M42.4517 37.0673H35.1379C34.1861 37.0673 33.4137 37.8397 33.4137 38.7914C33.4137 39.7431 34.1861 40.5155 35.1379 40.5155H42.4517C43.4034 40.5155 44.1758 39.7431 44.1758 38.7914C44.1758 37.8397 43.4034 37.0673 42.4517 37.0673Z" fill="#232323"/>
</svg>
