<svg width="101" height="100" viewBox="0 0 101 100" fill="none" xmlns="http://www.w3.org/2000/svg">
<path d="M63.8524 46.2501L43.9998 33.8422C43.2346 33.3641 42.2705 33.3387 41.4815 33.776C40.6924 34.2133 40.2028 35.0444 40.2028 35.9466V60.7623C40.2028 61.6645 40.6924 62.4955 41.4815 62.9329C41.8564 63.1407 42.2706 63.2439 42.6844 63.2439C43.1415 63.2439 43.598 63.1177 43.9996 62.8667L63.8523 50.4588C64.5779 50.0054 65.0186 49.2101 65.0186 48.3544C65.0186 47.4988 64.5781 46.7035 63.8524 46.2501ZM45.1661 56.2849V40.4238L57.855 48.3544L45.1661 56.2849Z" fill="#5D5D5D"/>
<path d="M80.0735 16.0939H20.1848C13.343 16.0939 7.77686 21.6601 7.77686 28.5018V68.207C7.77686 75.0487 13.343 80.6149 20.1848 80.6149H80.0735C86.9152 80.6149 92.4814 75.0487 92.4814 68.207V28.5018C92.4814 21.6601 86.9152 16.0939 80.0735 16.0939ZM87.5183 68.207C87.5183 72.3121 84.1786 75.6518 80.0735 75.6518H20.1848C16.0797 75.6518 12.74 72.3121 12.74 68.207V28.5018C12.74 24.3967 16.0797 21.057 20.1848 21.057H80.0735C84.1786 21.057 87.5183 24.3967 87.5183 28.5018V68.207Z" fill="#5D5D5D"/>
</svg>
