<svg width="118" height="118" viewBox="0 0 118 118" fill="none" xmlns="http://www.w3.org/2000/svg">
<path d="M106.931 34.9549C105.779 30.6712 102.402 27.2944 98.1185 26.1409C90.2939 24 58.9946 24 58.9946 24C58.9946 24 27.6966 24 19.8719 26.0598C15.6712 27.212 12.2114 30.6718 11.0592 34.9549C9 42.7789 9 59.005 9 59.005C9 59.005 9 75.3128 11.0592 83.0551C12.2126 87.3382 15.5888 90.715 19.8725 91.8685C27.779 94.01 58.9958 94.01 58.9958 94.01C58.9958 94.01 90.2939 94.01 98.1185 91.9502C102.402 90.7974 105.779 87.4206 106.933 83.1375C108.991 75.3128 108.991 59.0874 108.991 59.0874C108.991 59.0874 109.073 42.7789 106.931 34.9549V34.9549ZM49.0296 73.9952V44.0148L75.0565 59.005L49.0296 73.9952Z" fill="#6172FF"/>
</svg>
